<svg width="76" height="76" viewBox="0 0 76 76" fill="none" xmlns="http://www.w3.org/2000/svg">
<circle cx="38" cy="38" r="38" fill="#A733DA"/>
<path d="M28.8132 39.5489C28.5246 37.0256 28.2394 34.5372 27.9487 32.0084C28.1105 31.9931 28.2493 31.9701 28.3859 31.9701C32.7571 31.9701 37.1284 31.9625 41.4997 31.9832C41.8017 32.0002 42.0886 32.121 42.3117 32.3253C46.4972 36.2901 50.6732 40.2654 54.8398 44.2513C55.5807 44.9584 56.2965 45.6971 57.3937 45.919C57.2036 47.6151 57.02 49.2751 56.8309 50.9329C56.5523 53.371 56.2474 55.8058 55.9927 58.2461C55.7742 60.3542 54.6256 61.2546 52.4028 60.9377V57.2221C52.4028 56.7751 52.4105 56.3293 52.4028 55.8823C52.3755 54.6605 51.5209 53.8453 50.2958 53.8496C48.6435 53.8496 46.9912 53.8496 45.2689 53.8496V53.2278C45.2689 51.758 45.2765 50.2892 45.2689 48.8194C45.2601 47.5211 44.4285 46.708 43.1258 46.7058C41.4866 46.7058 39.8539 46.7058 38.1262 46.7058V46.1059C38.1262 44.636 38.1316 43.1662 38.1262 41.6974C38.1262 40.3674 37.2978 39.5544 35.958 39.5511C33.8008 39.5511 31.6436 39.5511 29.4863 39.5511L28.8132 39.5489Z" fill="white"/>
<path d="M58.8407 24.3568H28.3127C28.705 22.511 31.3868 21.0958 34.1473 21.2969C34.2052 21.1624 34.2718 21.0149 34.3319 20.8652C34.8588 19.5612 35.7917 18.4616 36.9923 17.7292C38.193 16.9968 39.5976 16.6705 40.9982 16.7988C41.2475 16.814 41.495 16.7464 41.7019 16.6064C46.106 13.4372 52.1384 15.1366 54.2508 20.1275C54.3793 20.3761 54.5966 20.5673 54.8595 20.663C56.6911 21.3012 58.0025 22.5001 58.8407 24.3568ZM45.294 18.4697C43.2286 18.5571 41.2889 19.8336 40.5545 21.6531C40.3818 22.0837 40.431 22.4378 40.8703 22.6367C41.3096 22.8356 41.6101 22.6104 41.7653 22.2214C42.4986 20.3854 44.7837 19.3352 46.7989 20.2368C47.2251 20.427 47.5923 20.3297 47.7671 19.8904C47.9496 19.4336 47.6993 19.1254 47.2721 18.9943C46.6196 18.7976 45.9541 18.6391 45.294 18.4697Z" fill="white"/>
<path d="M60.6809 42.2274C60.6273 43.2514 60.1607 44.0175 59.2329 44.4393C58.3051 44.8612 57.4046 44.7344 56.6287 44.0667C56.0375 43.5574 55.4878 42.999 54.9228 42.4602C50.5996 38.3417 46.2764 34.2206 41.9532 30.097C41.2724 29.4501 40.8997 28.6971 41.0647 27.7562C41.2298 26.8153 41.7816 26.165 42.6777 25.8514C43.6219 25.5236 44.4776 25.7312 45.2022 26.4186C46.8494 27.9813 48.4934 29.5477 50.1341 31.1177C53.3797 34.2112 56.6254 37.305 59.8711 40.3991C60.1227 40.6333 60.3241 40.9161 60.4633 41.2303C60.6025 41.5446 60.6765 41.8838 60.6809 42.2274Z" fill="white"/>
<path d="M28.269 48.085V53.819H14.0284V48.085H28.269Z" fill="white"/>
<path d="M29.6711 48.0449H42.9915C43.727 48.0449 43.9204 48.2351 43.9215 48.9618C43.9215 50.5617 43.9215 52.1616 43.9215 53.8063H29.6711V48.0449Z" fill="white"/>
<path d="M51.0674 60.9805H36.8105V55.1885H50.0981C50.8981 55.1885 51.0663 55.359 51.0674 56.172C51.0685 57.7599 51.0674 59.3412 51.0674 60.9805Z" fill="white"/>
<path d="M36.7765 46.6945H22.5294V40.9167C22.6933 40.908 22.8715 40.8916 23.0496 40.8916C27.2919 40.8916 31.5343 40.8916 35.7766 40.8916C36.6082 40.8916 36.7754 41.0643 36.7765 41.9123C36.7776 43.4893 36.7765 45.0662 36.7765 46.6945Z" fill="white"/>
<path d="M35.4084 60.9804H22.5251V55.2256H35.4084V60.9804Z" fill="white"/>
<path d="M40.5436 25.7105C39.3939 27.3793 39.4125 28.954 40.5108 30.5769C40.3447 30.5944 40.2113 30.6217 40.0736 30.6228C36.1883 30.6228 32.303 30.6228 28.4176 30.6228C26.9161 30.6228 25.8189 29.5573 25.8331 28.141C25.8462 26.7498 26.9357 25.7149 28.4154 25.7138C32.3 25.7087 36.1854 25.7087 40.0715 25.7138L40.5436 25.7105Z" fill="white"/>
<path d="M46.507 25.7109H47.0392C50.8707 25.7109 54.7021 25.7109 58.5335 25.7109C60.3192 25.7109 61.5115 27.2748 60.9978 28.9107C60.6962 29.8691 59.8143 30.597 58.8013 30.609C56.4768 30.6374 54.1513 30.6243 51.8269 30.609C51.6659 30.6041 51.5115 30.5439 51.3897 30.4385C49.7942 28.9319 48.2049 27.4183 46.6218 25.8978C46.5773 25.8395 46.5389 25.7769 46.507 25.7109Z" fill="white"/>
<path d="M14.0262 60.9601V55.2217H21.1022V60.9601H14.0262Z" fill="white"/>
<path d="M21.1197 40.8906V46.6651H14C14 45.6845 14 44.7046 14 43.7254C14 43.0369 14 42.3485 14 41.66C14 41.1671 14.2393 40.895 14.7475 40.895L21.1197 40.8906Z" fill="white"/>
<path d="M59.0024 32.001C58.8068 33.6992 58.6134 35.368 58.4068 37.1558L53.0039 32.001H59.0024Z" fill="white"/>
</svg>
