<svg width="76" height="76" viewBox="0 0 76 76" fill="none" xmlns="http://www.w3.org/2000/svg">
<circle cx="38" cy="38" r="38" fill="#80277C"/>
<path d="M21.5594 45.2299C22.532 44.3512 23.4233 43.4944 24.3696 42.7052C25.3159 41.916 26.4368 41.58 27.6669 41.629C30.7908 41.7533 33.9147 41.8819 37.0386 42.0147C40.0385 42.1413 43.0385 42.2789 46.0392 42.4022C47.5286 42.4638 48.7308 43.5493 48.7731 44.8956C48.8172 46.2757 47.6286 47.3925 46.0994 47.3435C44.211 47.2861 42.3234 47.1806 40.435 47.097C39.2879 47.0456 38.1408 46.9882 36.9937 46.9468C36.3303 46.9232 35.9372 47.2448 35.9347 47.7774C35.9347 48.2914 36.2998 48.6038 36.9319 48.6325C39.8437 48.7633 42.7555 48.8857 45.6665 49.0317C47.022 49.1009 48.2148 48.7692 49.2171 47.8306C50.2676 46.8472 50.6658 45.6655 50.3811 44.2448C50.368 44.1339 50.3793 44.0214 50.4143 43.9153C50.4493 43.8092 50.507 43.7119 50.5836 43.6303C52.8292 41.6444 55.0865 39.6712 57.3553 37.7107C58.5617 36.6648 60.2306 36.5568 61.5277 37.4152C62.7985 38.2593 63.2839 39.7221 62.7282 41.2761C62.5336 41.8034 62.2571 42.297 61.9089 42.739C59.3267 46.0439 56.7306 49.3378 54.1207 52.6208C52.1924 55.0552 49.6669 56.1238 46.5594 55.9702C41.7431 55.733 36.9242 55.5406 32.1062 55.3549C31.8343 55.3439 31.553 55.5718 31.2141 55.7136L21.5594 45.2299Z" fill="white"/>
<path d="M49.5087 42.3021C48.3226 41.0765 46.8671 40.7337 45.249 40.6747C39.5312 40.467 33.8118 40.207 28.0991 39.9437C26.6894 39.8787 25.3669 40.1252 24.0572 40.8587V40.2838C24.0572 36.6762 24.0631 33.0685 24.047 29.4608C24.047 29.0801 24.1681 28.8699 24.4799 28.6547C29.009 25.5625 33.5311 22.461 38.0461 19.3502C38.3774 19.1214 38.5866 19.1282 38.9145 19.3544C43.4142 22.4573 47.9222 25.5481 52.4383 28.6268C52.7772 28.8615 52.9076 29.1088 52.9051 29.5233C52.887 32.656 52.887 35.7884 52.9051 38.9206C52.9157 39.0749 52.8875 39.2293 52.823 39.3699C52.7584 39.5106 52.6597 39.6329 52.5357 39.7259C51.5309 40.5565 50.5465 41.4141 49.5087 42.3021ZM35.2453 36.8011C35.3859 36.6922 35.685 36.5352 35.8824 36.2946C37.1531 34.7415 38.4028 33.1715 39.66 31.604C40.5868 30.4501 41.5238 29.3021 42.4371 28.1432C42.9166 27.5371 42.6777 26.7217 41.9864 26.7082C41.6806 26.7014 41.2765 26.9336 41.0723 27.1834C38.8891 29.8567 36.7355 32.5553 34.576 35.2488C34.4725 35.3682 34.384 35.4997 34.3125 35.6404C34.0727 36.1705 34.4777 36.7884 35.2453 36.8011ZM35.9281 30.039C36.4318 30.039 36.9241 29.8898 37.3426 29.6105C37.761 29.3312 38.0868 28.9343 38.2784 28.4702C38.4701 28.0061 38.519 27.4958 38.419 27.0039C38.319 26.5121 38.0745 26.0609 37.7167 25.7077C37.3589 25.3545 36.9038 25.1152 36.4092 25.0202C35.9147 24.9252 35.4029 24.9787 34.9389 25.174C34.4749 25.3693 34.0797 25.6976 33.8033 26.1171C33.5269 26.5366 33.3818 27.0285 33.3865 27.5303C33.3958 28.1969 33.6673 28.8331 34.1426 29.3023C34.6179 29.7714 35.2591 30.036 35.9281 30.039ZM41.0316 33.4238C40.528 33.4227 40.0355 33.5706 39.6164 33.8488C39.1973 34.127 38.8707 34.523 38.6778 34.9865C38.485 35.45 38.4347 35.9601 38.5334 36.4522C38.632 36.9442 38.8751 37.3959 39.2319 37.75C39.5886 38.1042 40.0429 38.3447 40.5371 38.4412C41.0313 38.5377 41.5431 38.4857 42.0076 38.2919C42.472 38.098 42.8683 37.7711 43.146 37.3525C43.4237 36.934 43.5703 36.4427 43.5673 35.9409C43.5602 35.274 43.2905 34.6364 42.8162 34.1656C42.342 33.6948 41.7011 33.4285 41.0316 33.4238Z" fill="white"/>
<path d="M18.7832 26.4083L26.1377 21.3656C30.1229 18.6324 34.1073 15.8978 38.0908 13.1618C38.345 12.9829 38.5297 12.9255 38.8254 13.1289C45.1602 17.4878 51.5003 21.8406 57.8458 26.1871C57.9305 26.2462 58.0152 26.3129 58.1593 26.4235L56.2548 29.1887C56.0514 29.0554 55.8651 28.9355 55.6829 28.8123C50.0976 24.9801 44.5143 21.145 38.933 17.3072C38.5805 17.0649 38.3619 17.0759 38.0171 17.3131C32.3533 21.2162 26.6828 25.1095 21.0054 28.9929C20.9207 29.052 20.8258 29.1026 20.6962 29.1803L18.7832 26.4083Z" fill="white"/>
<path d="M31.6632 58.7082L26.9681 63.0004L14 48.9048L18.696 44.6143L31.6632 58.7082Z" fill="white"/>
<path d="M47.8031 14.8506H52.8592V20.7078C52.3204 20.3398 51.8299 20.0063 51.341 19.6712C50.2795 18.9428 49.223 18.205 48.1522 17.4926C47.8836 17.3145 47.7845 17.1221 47.7964 16.8055C47.8226 16.1741 47.8031 15.5411 47.8031 14.8506Z" fill="white"/>
</svg>
