<svg width="312" height="260" viewBox="0 0 312 260" fill="none" xmlns="http://www.w3.org/2000/svg">
<rect width="312" height="260" rx="24" fill="#FAFAFA"/>
<circle cx="156" cy="78" r="38" fill="#80277C"/>
<path d="M139.559 85.2299C140.532 84.3512 141.423 83.4944 142.37 82.7052C143.316 81.916 144.437 81.58 145.667 81.629C148.791 81.7533 151.915 81.8819 155.039 82.0147C158.039 82.1413 161.038 82.2789 164.039 82.4022C165.529 82.4638 166.731 83.5493 166.773 84.8956C166.817 86.2757 165.629 87.3925 164.099 87.3435C162.211 87.2861 160.323 87.1806 158.435 87.097C157.288 87.0456 156.141 86.9882 154.994 86.9468C154.33 86.9232 153.937 87.2448 153.935 87.7774C153.935 88.2914 154.3 88.6038 154.932 88.6325C157.844 88.7633 160.755 88.8857 163.666 89.0317C165.022 89.1009 166.215 88.7692 167.217 87.8306C168.268 86.8472 168.666 85.6655 168.381 84.2448C168.368 84.1339 168.379 84.0214 168.414 83.9153C168.449 83.8092 168.507 83.7119 168.584 83.6303C170.829 81.6444 173.086 79.6712 175.355 77.7107C176.562 76.6648 178.231 76.5568 179.528 77.4152C180.799 78.2593 181.284 79.7221 180.728 81.2761C180.534 81.8034 180.257 82.297 179.909 82.739C177.327 86.0439 174.731 89.3378 172.121 92.6208C170.192 95.0552 167.667 96.1238 164.559 95.9702C159.743 95.733 154.924 95.5406 150.106 95.3549C149.834 95.3439 149.553 95.5718 149.214 95.7136L139.559 85.2299Z" fill="white"/>
<path d="M167.509 82.3021C166.323 81.0765 164.867 80.7337 163.249 80.6747C157.531 80.467 151.812 80.207 146.099 79.9437C144.689 79.8787 143.367 80.1252 142.057 80.8587V80.2838C142.057 76.6762 142.063 73.0685 142.047 69.4608C142.047 69.0801 142.168 68.8699 142.48 68.6547C147.009 65.5625 151.531 62.461 156.046 59.3502C156.377 59.1214 156.587 59.1282 156.914 59.3544C161.414 62.4573 165.922 65.5481 170.438 68.6268C170.777 68.8615 170.908 69.1088 170.905 69.5233C170.887 72.656 170.887 75.7884 170.905 78.9206C170.916 79.0749 170.887 79.2293 170.823 79.3699C170.758 79.5106 170.66 79.6329 170.536 79.7259C169.531 80.5565 168.547 81.4141 167.509 82.3021ZM153.245 76.8011C153.386 76.6922 153.685 76.5352 153.882 76.2946C155.153 74.7415 156.403 73.1715 157.66 71.604C158.587 70.4501 159.524 69.3021 160.437 68.1432C160.917 67.5371 160.678 66.7217 159.986 66.7082C159.681 66.7014 159.276 66.9336 159.072 67.1834C156.889 69.8567 154.735 72.5553 152.576 75.2488C152.473 75.3682 152.384 75.4997 152.312 75.6404C152.073 76.1705 152.478 76.7884 153.245 76.8011ZM153.928 70.039C154.432 70.039 154.924 69.8898 155.343 69.6105C155.761 69.3312 156.087 68.9343 156.278 68.4702C156.47 68.0061 156.519 67.4958 156.419 67.0039C156.319 66.5121 156.075 66.0609 155.717 65.7077C155.359 65.3545 154.904 65.1152 154.409 65.0202C153.915 64.9252 153.403 64.9787 152.939 65.174C152.475 65.3693 152.08 65.6976 151.803 66.1171C151.527 66.5366 151.382 67.0285 151.387 67.5303C151.396 68.1969 151.667 68.8331 152.143 69.3023C152.618 69.7714 153.259 70.036 153.928 70.039ZM159.032 73.4238C158.528 73.4227 158.035 73.5706 157.616 73.8488C157.197 74.127 156.871 74.523 156.678 74.9865C156.485 75.45 156.435 75.9601 156.533 76.4522C156.632 76.9442 156.875 77.3959 157.232 77.75C157.589 78.1042 158.043 78.3447 158.537 78.4412C159.031 78.5377 159.543 78.4857 160.008 78.2919C160.472 78.098 160.868 77.7711 161.146 77.3525C161.424 76.934 161.57 76.4427 161.567 75.9409C161.56 75.274 161.29 74.6364 160.816 74.1656C160.342 73.6948 159.701 73.4285 159.032 73.4238Z" fill="white"/>
<path d="M136.783 66.4083L144.138 61.3656C148.123 58.6324 152.107 55.8978 156.091 53.1618C156.345 52.9829 156.53 52.9255 156.825 53.1289C163.16 57.4878 169.5 61.8406 175.846 66.1871C175.931 66.2462 176.015 66.3129 176.159 66.4235L174.255 69.1887C174.051 69.0554 173.865 68.9355 173.683 68.8123C168.098 64.9801 162.514 61.145 156.933 57.3072C156.581 57.0649 156.362 57.0759 156.017 57.3131C150.353 61.2162 144.683 65.1095 139.005 68.9929C138.921 69.052 138.826 69.1026 138.696 69.1803L136.783 66.4083Z" fill="white"/>
<path d="M149.663 98.7082L144.968 103L132 88.9048L136.696 84.6143L149.663 98.7082Z" fill="white"/>
<path d="M165.803 54.8506H170.859V60.7078C170.32 60.3398 169.83 60.0063 169.341 59.6712C168.279 58.9428 167.223 58.205 166.152 57.4926C165.884 57.3145 165.784 57.1221 165.796 56.8055C165.823 56.1741 165.803 55.5411 165.803 54.8506Z" fill="white"/>
<path d="M102.43 159V144.455H105.506V150.456H111.748V144.455H114.817V159H111.748V152.991H105.506V159H102.43ZM122.224 159.213C121.121 159.213 120.167 158.979 119.362 158.51C118.562 158.036 117.944 157.378 117.508 156.536C117.073 155.688 116.855 154.705 116.855 153.588C116.855 152.461 117.073 151.476 117.508 150.634C117.944 149.786 118.562 149.128 119.362 148.659C120.167 148.186 121.121 147.949 122.224 147.949C123.327 147.949 124.279 148.186 125.079 148.659C125.884 149.128 126.505 149.786 126.94 150.634C127.376 151.476 127.594 152.461 127.594 153.588C127.594 154.705 127.376 155.688 126.94 156.536C126.505 157.378 125.884 158.036 125.079 158.51C124.279 158.979 123.327 159.213 122.224 159.213ZM122.238 156.869C122.74 156.869 123.159 156.727 123.496 156.443C123.832 156.154 124.085 155.761 124.256 155.264C124.431 154.767 124.518 154.201 124.518 153.567C124.518 152.932 124.431 152.366 124.256 151.869C124.085 151.372 123.832 150.979 123.496 150.69C123.159 150.402 122.74 150.257 122.238 150.257C121.732 150.257 121.306 150.402 120.96 150.69C120.619 150.979 120.361 151.372 120.186 151.869C120.015 152.366 119.93 152.932 119.93 153.567C119.93 154.201 120.015 154.767 120.186 155.264C120.361 155.761 120.619 156.154 120.96 156.443C121.306 156.727 121.732 156.869 122.238 156.869ZM129.561 159V148.091H132.444V150.016H132.572C132.8 149.376 133.178 148.872 133.709 148.503C134.239 148.134 134.873 147.949 135.612 147.949C136.36 147.949 136.997 148.136 137.523 148.51C138.048 148.879 138.398 149.381 138.574 150.016H138.687C138.91 149.391 139.312 148.891 139.895 148.517C140.482 148.138 141.175 147.949 141.976 147.949C142.994 147.949 143.82 148.273 144.454 148.922C145.094 149.566 145.413 150.48 145.413 151.663V159H142.395V152.26C142.395 151.654 142.234 151.199 141.912 150.896C141.59 150.593 141.187 150.442 140.704 150.442C140.155 150.442 139.727 150.617 139.419 150.967C139.111 151.313 138.957 151.77 138.957 152.338V159H136.024V152.196C136.024 151.661 135.87 151.235 135.562 150.918C135.259 150.6 134.859 150.442 134.362 150.442C134.026 150.442 133.723 150.527 133.453 150.697C133.188 150.863 132.977 151.098 132.821 151.401C132.665 151.699 132.586 152.049 132.586 152.452V159H129.561ZM152.775 159.213C151.653 159.213 150.687 158.986 149.877 158.531C149.072 158.072 148.452 157.423 148.016 156.585C147.581 155.742 147.363 154.746 147.363 153.595C147.363 152.473 147.581 151.488 148.016 150.641C148.452 149.793 149.065 149.133 149.856 148.659C150.651 148.186 151.584 147.949 152.654 147.949C153.374 147.949 154.044 148.065 154.664 148.297C155.289 148.524 155.833 148.867 156.297 149.327C156.766 149.786 157.131 150.364 157.391 151.06C157.652 151.751 157.782 152.561 157.782 153.489V154.32H148.57V152.445H154.934C154.934 152.009 154.839 151.623 154.65 151.287C154.46 150.951 154.198 150.688 153.861 150.499C153.53 150.304 153.144 150.207 152.704 150.207C152.244 150.207 151.837 150.314 151.482 150.527C151.132 150.735 150.857 151.017 150.658 151.372C150.459 151.723 150.358 152.113 150.353 152.544V154.327C150.353 154.866 150.452 155.333 150.651 155.726C150.855 156.119 151.141 156.422 151.51 156.635C151.88 156.848 152.318 156.955 152.824 156.955C153.161 156.955 153.468 156.907 153.748 156.812C154.027 156.718 154.266 156.576 154.465 156.386C154.664 156.197 154.815 155.965 154.92 155.69L157.718 155.875C157.576 156.547 157.285 157.134 156.844 157.636C156.409 158.134 155.845 158.522 155.154 158.801C154.467 159.076 153.674 159.213 152.775 159.213ZM164.442 159V144.455H167.517V156.464H173.753V159H164.442ZM180.662 159.213C179.559 159.213 178.604 158.979 177.8 158.51C176.999 158.036 176.381 157.378 175.946 156.536C175.51 155.688 175.292 154.705 175.292 153.588C175.292 152.461 175.51 151.476 175.946 150.634C176.381 149.786 176.999 149.128 177.8 148.659C178.604 148.186 179.559 147.949 180.662 147.949C181.765 147.949 182.717 148.186 183.517 148.659C184.322 149.128 184.942 149.786 185.378 150.634C185.813 151.476 186.031 152.461 186.031 153.588C186.031 154.705 185.813 155.688 185.378 156.536C184.942 157.378 184.322 158.036 183.517 158.51C182.717 158.979 181.765 159.213 180.662 159.213ZM180.676 156.869C181.178 156.869 181.597 156.727 181.933 156.443C182.269 156.154 182.523 155.761 182.693 155.264C182.868 154.767 182.956 154.201 182.956 153.567C182.956 152.932 182.868 152.366 182.693 151.869C182.523 151.372 182.269 150.979 181.933 150.69C181.597 150.402 181.178 150.257 180.676 150.257C180.169 150.257 179.743 150.402 179.398 150.69C179.057 150.979 178.799 151.372 178.623 151.869C178.453 152.366 178.368 152.932 178.368 153.567C178.368 154.201 178.453 154.767 178.623 155.264C178.799 155.761 179.057 156.154 179.398 156.443C179.743 156.727 180.169 156.869 180.676 156.869ZM191.109 159.206C190.413 159.206 189.793 159.085 189.248 158.844C188.704 158.598 188.273 158.235 187.956 157.757C187.643 157.274 187.487 156.673 187.487 155.953C187.487 155.347 187.598 154.838 187.821 154.426C188.043 154.014 188.346 153.683 188.73 153.432C189.113 153.181 189.549 152.991 190.037 152.864C190.529 152.736 191.045 152.646 191.585 152.594C192.22 152.527 192.731 152.466 193.119 152.409C193.507 152.348 193.789 152.258 193.964 152.139C194.14 152.021 194.227 151.846 194.227 151.614V151.571C194.227 151.121 194.085 150.773 193.801 150.527C193.522 150.281 193.124 150.158 192.608 150.158C192.063 150.158 191.63 150.278 191.308 150.52C190.986 150.757 190.773 151.055 190.669 151.415L187.871 151.188C188.013 150.525 188.292 149.952 188.709 149.469C189.125 148.981 189.663 148.607 190.321 148.347C190.984 148.081 191.751 147.949 192.622 147.949C193.228 147.949 193.808 148.02 194.362 148.162C194.921 148.304 195.416 148.524 195.846 148.822C196.282 149.121 196.625 149.504 196.876 149.973C197.127 150.437 197.253 150.993 197.253 151.642V159H194.383V157.487H194.298C194.123 157.828 193.889 158.129 193.595 158.389C193.301 158.645 192.949 158.846 192.537 158.993C192.125 159.135 191.649 159.206 191.109 159.206ZM191.976 157.118C192.421 157.118 192.814 157.03 193.155 156.855C193.496 156.675 193.763 156.434 193.957 156.131C194.151 155.828 194.248 155.484 194.248 155.101V153.943C194.154 154.005 194.023 154.062 193.858 154.114C193.697 154.161 193.515 154.206 193.311 154.249C193.107 154.286 192.904 154.322 192.7 154.355C192.497 154.384 192.312 154.41 192.146 154.433C191.791 154.485 191.481 154.568 191.216 154.682C190.951 154.795 190.745 154.949 190.598 155.143C190.451 155.333 190.378 155.57 190.378 155.854C190.378 156.266 190.527 156.58 190.825 156.798C191.128 157.011 191.512 157.118 191.976 157.118ZM202.626 152.693V159H199.6V148.091H202.483V150.016H202.611C202.853 149.381 203.258 148.879 203.826 148.51C204.394 148.136 205.083 147.949 205.893 147.949C206.65 147.949 207.311 148.115 207.874 148.446C208.438 148.777 208.876 149.251 209.188 149.866C209.501 150.477 209.657 151.206 209.657 152.054V159H206.631V152.594C206.636 151.926 206.465 151.405 206.12 151.031C205.774 150.652 205.298 150.463 204.692 150.463C204.285 150.463 203.925 150.551 203.613 150.726C203.305 150.901 203.064 151.157 202.888 151.493C202.718 151.824 202.63 152.224 202.626 152.693Z" fill="black"/>
<path d="M65.8191 195H62.5229V184.818H65.9235C66.9211 184.818 67.7779 185.022 68.4938 185.43C69.2097 185.834 69.7582 186.416 70.1394 187.175C70.5239 187.93 70.7161 188.837 70.7161 189.894C70.7161 190.955 70.5222 191.866 70.1344 192.629C69.7499 193.391 69.1931 193.978 68.464 194.388C67.7348 194.796 66.8532 195 65.8191 195ZM64.0591 193.658H65.7346C66.5101 193.658 67.1548 193.512 67.6685 193.22C68.1822 192.925 68.5667 192.499 68.8219 191.942C69.0771 191.382 69.2047 190.7 69.2047 189.894C69.2047 189.095 69.0771 188.418 68.8219 187.861C68.57 187.304 68.1938 186.881 67.6934 186.593C67.1929 186.305 66.5714 186.161 65.829 186.161H64.0591V193.658ZM72.5071 195V187.364H73.9936V195H72.5071ZM73.2578 186.185C72.9993 186.185 72.7772 186.099 72.5916 185.927C72.4093 185.751 72.3182 185.542 72.3182 185.3C72.3182 185.055 72.4093 184.846 72.5916 184.674C72.7772 184.498 72.9993 184.411 73.2578 184.411C73.5163 184.411 73.7367 184.498 73.919 184.674C74.1046 184.846 74.1974 185.055 74.1974 185.3C74.1974 185.542 74.1046 185.751 73.919 185.927C73.7367 186.099 73.5163 186.185 73.2578 186.185ZM81.7157 189.228L80.3684 189.467C80.3121 189.294 80.2226 189.13 80.1 188.974C79.9806 188.819 79.8182 188.691 79.6127 188.592C79.4073 188.492 79.1504 188.442 78.8422 188.442C78.4212 188.442 78.0699 188.537 77.7882 188.726C77.5065 188.911 77.3656 189.152 77.3656 189.447C77.3656 189.702 77.46 189.907 77.649 190.063C77.8379 190.219 78.1428 190.347 78.5637 190.446L79.7768 190.724C80.4795 190.887 81.0031 191.137 81.3478 191.475C81.6925 191.813 81.8649 192.252 81.8649 192.793C81.8649 193.25 81.7323 193.658 81.4672 194.016C81.2053 194.37 80.8391 194.649 80.3684 194.851C79.9011 195.053 79.3592 195.154 78.7427 195.154C77.8876 195.154 77.1899 194.972 76.6497 194.607C76.1094 194.239 75.778 193.717 75.6554 193.041L77.0922 192.822C77.1816 193.197 77.3656 193.48 77.644 193.673C77.9224 193.862 78.2853 193.956 78.7328 193.956C79.22 193.956 79.6094 193.855 79.9011 193.653C80.1928 193.447 80.3386 193.197 80.3386 192.902C80.3386 192.663 80.2491 192.463 80.0701 192.3C79.8945 192.138 79.6243 192.015 79.2598 191.933L77.9672 191.649C77.2546 191.487 76.7276 191.228 76.3862 190.874C76.0481 190.519 75.8791 190.07 75.8791 189.526C75.8791 189.076 76.005 188.681 76.2569 188.343C76.5088 188.005 76.8568 187.741 77.301 187.553C77.7451 187.36 78.2538 187.264 78.8272 187.264C79.6525 187.264 80.3021 187.443 80.7761 187.801C81.2501 188.156 81.5633 188.631 81.7157 189.228ZM86.7159 195.154C85.9768 195.154 85.3404 194.987 84.8068 194.652C84.2765 194.314 83.8688 193.848 83.5838 193.255C83.2988 192.662 83.1562 191.982 83.1562 191.217C83.1562 190.441 83.3021 189.757 83.5938 189.163C83.8854 188.567 84.2964 188.101 84.8267 187.766C85.357 187.432 85.9818 187.264 86.701 187.264C87.281 187.264 87.7981 187.372 88.2521 187.587C88.7062 187.799 89.0724 188.098 89.3509 188.482C89.6326 188.867 89.8 189.316 89.853 189.83H88.4062C88.3267 189.472 88.1444 189.163 87.8594 188.905C87.5777 188.646 87.1998 188.517 86.7259 188.517C86.3116 188.517 85.9486 188.626 85.6371 188.845C85.3288 189.061 85.0885 189.369 84.9162 189.77C84.7438 190.168 84.6577 190.638 84.6577 191.182C84.6577 191.739 84.7422 192.219 84.9112 192.624C85.0803 193.028 85.3189 193.341 85.6271 193.563C85.9387 193.785 86.3049 193.896 86.7259 193.896C87.0076 193.896 87.2628 193.845 87.4915 193.742C87.7235 193.636 87.9174 193.485 88.0732 193.29C88.2322 193.094 88.3433 192.859 88.4062 192.584H89.853C89.8 193.078 89.6392 193.518 89.3707 193.906C89.1023 194.294 88.7427 194.599 88.2919 194.821C87.8445 195.043 87.3191 195.154 86.7159 195.154ZM94.6593 195.154C93.9434 195.154 93.3186 194.99 92.785 194.662C92.2514 194.334 91.8371 193.875 91.5421 193.285C91.2471 192.695 91.0996 192.005 91.0996 191.217C91.0996 190.424 91.2471 189.732 91.5421 189.138C91.8371 188.545 92.2514 188.085 92.785 187.756C93.3186 187.428 93.9434 187.264 94.6593 187.264C95.3752 187.264 95.9999 187.428 96.5336 187.756C97.0672 188.085 97.4815 188.545 97.7765 189.138C98.0714 189.732 98.2189 190.424 98.2189 191.217C98.2189 192.005 98.0714 192.695 97.7765 193.285C97.4815 193.875 97.0672 194.334 96.5336 194.662C95.9999 194.99 95.3752 195.154 94.6593 195.154ZM94.6642 193.906C95.1283 193.906 95.5127 193.784 95.8176 193.538C96.1226 193.293 96.348 192.967 96.4938 192.559C96.6429 192.151 96.7175 191.702 96.7175 191.212C96.7175 190.724 96.6429 190.277 96.4938 189.869C96.348 189.458 96.1226 189.129 95.8176 188.88C95.5127 188.631 95.1283 188.507 94.6642 188.507C94.1969 188.507 93.8091 188.631 93.5009 188.88C93.196 189.129 92.9689 189.458 92.8198 189.869C92.6739 190.277 92.601 190.724 92.601 191.212C92.601 191.702 92.6739 192.151 92.8198 192.559C92.9689 192.967 93.196 193.293 93.5009 193.538C93.8091 193.784 94.1969 193.906 94.6642 193.906ZM106.151 187.364L103.382 195H101.791L99.0169 187.364H100.613L102.547 193.24H102.626L104.555 187.364H106.151ZM110.58 195.154C109.827 195.154 109.179 194.993 108.636 194.672C108.095 194.347 107.678 193.891 107.383 193.305C107.091 192.715 106.945 192.024 106.945 191.232C106.945 190.449 107.091 189.76 107.383 189.163C107.678 188.567 108.089 188.101 108.616 187.766C109.146 187.432 109.766 187.264 110.475 187.264C110.906 187.264 111.324 187.335 111.728 187.478C112.132 187.621 112.495 187.844 112.817 188.149C113.138 188.454 113.392 188.85 113.577 189.337C113.763 189.821 113.856 190.41 113.856 191.102V191.629H107.786V190.516H112.399C112.399 190.125 112.32 189.778 112.161 189.477C112.001 189.172 111.778 188.931 111.489 188.756C111.204 188.58 110.87 188.492 110.485 188.492C110.067 188.492 109.703 188.595 109.391 188.8C109.083 189.003 108.844 189.268 108.675 189.596C108.51 189.921 108.427 190.274 108.427 190.655V191.525C108.427 192.035 108.516 192.469 108.695 192.827C108.878 193.185 109.131 193.459 109.456 193.648C109.781 193.833 110.16 193.926 110.594 193.926C110.876 193.926 111.133 193.886 111.365 193.807C111.597 193.724 111.798 193.601 111.967 193.439C112.136 193.277 112.265 193.076 112.354 192.837L113.761 193.091C113.649 193.505 113.446 193.868 113.155 194.18C112.866 194.488 112.504 194.728 112.066 194.901C111.632 195.07 111.136 195.154 110.58 195.154ZM115.505 195V187.364H116.942V188.577H117.021C117.161 188.166 117.406 187.843 117.757 187.607C118.112 187.369 118.513 187.249 118.96 187.249C119.053 187.249 119.163 187.253 119.289 187.259C119.418 187.266 119.519 187.274 119.592 187.284V188.706C119.532 188.689 119.426 188.671 119.274 188.651C119.121 188.628 118.969 188.616 118.816 188.616C118.465 188.616 118.152 188.691 117.877 188.84C117.605 188.986 117.389 189.19 117.23 189.452C117.071 189.71 116.992 190.005 116.992 190.337V195H115.505ZM131.25 184.818H132.791V191.515C132.791 192.228 132.624 192.859 132.289 193.409C131.954 193.956 131.484 194.387 130.877 194.702C130.271 195.013 129.56 195.169 128.744 195.169C127.932 195.169 127.223 195.013 126.617 194.702C126.01 194.387 125.539 193.956 125.205 193.409C124.87 192.859 124.703 192.228 124.703 191.515V184.818H126.239V191.391C126.239 191.851 126.34 192.261 126.542 192.619C126.748 192.977 127.038 193.258 127.412 193.464C127.787 193.666 128.231 193.767 128.744 193.767C129.262 193.767 129.707 193.666 130.082 193.464C130.46 193.258 130.748 192.977 130.947 192.619C131.149 192.261 131.25 191.851 131.25 191.391V184.818ZM136.392 190.466V195H134.906V187.364H136.332V188.607H136.427C136.603 188.202 136.878 187.877 137.252 187.632C137.63 187.387 138.106 187.264 138.679 187.264C139.199 187.264 139.655 187.374 140.046 187.592C140.437 187.808 140.741 188.129 140.956 188.557C141.171 188.984 141.279 189.513 141.279 190.143V195H139.793V190.322C139.793 189.768 139.648 189.336 139.36 189.024C139.072 188.709 138.676 188.552 138.172 188.552C137.827 188.552 137.521 188.626 137.252 188.776C136.987 188.925 136.777 189.143 136.621 189.432C136.468 189.717 136.392 190.062 136.392 190.466ZM143.273 195V187.364H144.7V188.607H144.794C144.953 188.186 145.213 187.857 145.575 187.622C145.936 187.384 146.368 187.264 146.872 187.264C147.383 187.264 147.81 187.384 148.155 187.622C148.503 187.861 148.76 188.189 148.925 188.607H149.005C149.187 188.199 149.477 187.874 149.875 187.632C150.273 187.387 150.747 187.264 151.297 187.264C151.99 187.264 152.555 187.481 152.992 187.915C153.433 188.35 153.653 189.004 153.653 189.879V195H152.167V190.018C152.167 189.501 152.026 189.127 151.744 188.895C151.463 188.663 151.126 188.547 150.735 188.547C150.251 188.547 149.875 188.696 149.607 188.994C149.338 189.289 149.204 189.669 149.204 190.133V195H147.722V189.924C147.722 189.51 147.593 189.177 147.335 188.925C147.076 188.673 146.74 188.547 146.325 188.547C146.044 188.547 145.783 188.621 145.545 188.771C145.309 188.916 145.119 189.12 144.973 189.382C144.83 189.644 144.759 189.947 144.759 190.292V195H143.273ZM157.868 195.169C157.384 195.169 156.947 195.08 156.556 194.901C156.164 194.718 155.855 194.455 155.626 194.11C155.401 193.765 155.288 193.343 155.288 192.842C155.288 192.411 155.371 192.057 155.536 191.778C155.702 191.5 155.926 191.28 156.208 191.117C156.489 190.955 156.804 190.832 157.152 190.749C157.5 190.666 157.855 190.603 158.216 190.56C158.673 190.507 159.045 190.464 159.33 190.431C159.615 190.395 159.822 190.337 159.951 190.257C160.08 190.178 160.145 190.048 160.145 189.869V189.835C160.145 189.4 160.022 189.064 159.777 188.825C159.535 188.587 159.174 188.467 158.693 188.467C158.193 188.467 157.798 188.578 157.51 188.8C157.225 189.019 157.028 189.263 156.919 189.531L155.521 189.213C155.687 188.749 155.929 188.375 156.247 188.089C156.569 187.801 156.938 187.592 157.356 187.463C157.774 187.33 158.213 187.264 158.673 187.264C158.978 187.264 159.302 187.301 159.643 187.374C159.988 187.443 160.309 187.572 160.607 187.761C160.909 187.95 161.156 188.22 161.348 188.572C161.54 188.92 161.637 189.372 161.637 189.929V195H160.185V193.956H160.125C160.029 194.148 159.885 194.337 159.693 194.523C159.5 194.708 159.253 194.862 158.952 194.985C158.65 195.108 158.289 195.169 157.868 195.169ZM158.191 193.976C158.602 193.976 158.954 193.895 159.245 193.732C159.54 193.57 159.764 193.358 159.916 193.096C160.072 192.831 160.15 192.547 160.15 192.246V191.261C160.097 191.314 159.994 191.364 159.842 191.411C159.693 191.454 159.522 191.492 159.33 191.525C159.137 191.555 158.95 191.583 158.768 191.609C158.586 191.633 158.433 191.652 158.311 191.669C158.022 191.705 157.759 191.767 157.52 191.853C157.285 191.939 157.096 192.063 156.953 192.226C156.814 192.385 156.744 192.597 156.744 192.862C156.744 193.23 156.88 193.509 157.152 193.697C157.424 193.883 157.77 193.976 158.191 193.976ZM167.181 187.364V188.557H163.01V187.364H167.181ZM164.129 185.534H165.615V192.758C165.615 193.046 165.658 193.263 165.744 193.409C165.83 193.552 165.942 193.649 166.077 193.702C166.217 193.752 166.367 193.777 166.53 193.777C166.649 193.777 166.754 193.769 166.843 193.752C166.933 193.736 167.002 193.722 167.052 193.712L167.32 194.94C167.234 194.973 167.112 195.007 166.952 195.04C166.793 195.076 166.594 195.096 166.356 195.099C165.965 195.106 165.6 195.036 165.262 194.891C164.924 194.745 164.651 194.519 164.442 194.214C164.233 193.91 164.129 193.527 164.129 193.066V185.534ZM171.96 195.154C171.221 195.154 170.585 194.987 170.051 194.652C169.521 194.314 169.113 193.848 168.828 193.255C168.543 192.662 168.4 191.982 168.4 191.217C168.4 190.441 168.546 189.757 168.838 189.163C169.13 188.567 169.541 188.101 170.071 187.766C170.601 187.432 171.226 187.264 171.945 187.264C172.525 187.264 173.042 187.372 173.496 187.587C173.95 187.799 174.317 188.098 174.595 188.482C174.877 188.867 175.044 189.316 175.097 189.83H173.65C173.571 189.472 173.389 189.163 173.104 188.905C172.822 188.646 172.444 188.517 171.97 188.517C171.556 188.517 171.193 188.626 170.881 188.845C170.573 189.061 170.333 189.369 170.16 189.77C169.988 190.168 169.902 190.638 169.902 191.182C169.902 191.739 169.986 192.219 170.155 192.624C170.324 193.028 170.563 193.341 170.871 193.563C171.183 193.785 171.549 193.896 171.97 193.896C172.252 193.896 172.507 193.845 172.736 193.742C172.968 193.636 173.162 193.485 173.317 193.29C173.476 193.094 173.587 192.859 173.65 192.584H175.097C175.044 193.078 174.883 193.518 174.615 193.906C174.346 194.294 173.987 194.599 173.536 194.821C173.089 195.043 172.563 195.154 171.96 195.154ZM178.173 190.466V195H176.687V184.818H178.153V188.607H178.248C178.427 188.196 178.7 187.869 179.068 187.627C179.436 187.385 179.917 187.264 180.51 187.264C181.034 187.264 181.491 187.372 181.882 187.587C182.277 187.803 182.581 188.124 182.797 188.552C183.016 188.976 183.125 189.506 183.125 190.143V195H181.638V190.322C181.638 189.762 181.494 189.327 181.206 189.019C180.918 188.708 180.517 188.552 180.003 188.552C179.652 188.552 179.337 188.626 179.058 188.776C178.783 188.925 178.566 189.143 178.407 189.432C178.251 189.717 178.173 190.062 178.173 190.466ZM188.4 195.154C187.647 195.154 187 194.993 186.456 194.672C185.916 194.347 185.498 193.891 185.203 193.305C184.911 192.715 184.766 192.024 184.766 191.232C184.766 190.449 184.911 189.76 185.203 189.163C185.498 188.567 185.909 188.101 186.436 187.766C186.966 187.432 187.586 187.264 188.295 187.264C188.726 187.264 189.144 187.335 189.548 187.478C189.953 187.621 190.316 187.844 190.637 188.149C190.959 188.454 191.212 188.85 191.398 189.337C191.583 189.821 191.676 190.41 191.676 191.102V191.629H185.606V190.516H190.219C190.219 190.125 190.14 189.778 189.981 189.477C189.822 189.172 189.598 188.931 189.31 188.756C189.025 188.58 188.69 188.492 188.305 188.492C187.888 188.492 187.523 188.595 187.212 188.8C186.903 189.003 186.665 189.268 186.496 189.596C186.33 189.921 186.247 190.274 186.247 190.655V191.525C186.247 192.035 186.337 192.469 186.516 192.827C186.698 193.185 186.951 193.459 187.276 193.648C187.601 193.833 187.981 193.926 188.415 193.926C188.696 193.926 188.953 193.886 189.185 193.807C189.417 193.724 189.618 193.601 189.787 193.439C189.956 193.277 190.085 193.076 190.175 192.837L191.582 193.091C191.469 193.505 191.267 193.868 190.975 194.18C190.687 194.488 190.324 194.728 189.886 194.901C189.452 195.07 188.957 195.154 188.4 195.154ZM196.184 195.149C195.568 195.149 195.017 194.992 194.534 194.677C194.053 194.359 193.675 193.906 193.4 193.32C193.128 192.73 192.992 192.022 192.992 191.197C192.992 190.371 193.13 189.665 193.405 189.079C193.683 188.492 194.065 188.043 194.548 187.732C195.032 187.42 195.581 187.264 196.194 187.264C196.668 187.264 197.049 187.344 197.338 187.503C197.629 187.659 197.855 187.841 198.014 188.05C198.176 188.259 198.302 188.442 198.392 188.602H198.481V184.818H199.968V195H198.516V193.812H198.392C198.302 193.974 198.173 194.16 198.004 194.369C197.838 194.577 197.609 194.76 197.318 194.915C197.026 195.071 196.648 195.149 196.184 195.149ZM196.512 193.881C196.94 193.881 197.301 193.769 197.596 193.543C197.894 193.315 198.12 192.998 198.272 192.594C198.428 192.189 198.506 191.719 198.506 191.182C198.506 190.652 198.43 190.187 198.277 189.79C198.125 189.392 197.901 189.082 197.606 188.86C197.311 188.638 196.946 188.527 196.512 188.527C196.065 188.527 195.692 188.643 195.394 188.875C195.095 189.107 194.87 189.424 194.718 189.825C194.568 190.226 194.494 190.678 194.494 191.182C194.494 191.692 194.57 192.151 194.722 192.559C194.875 192.967 195.1 193.29 195.399 193.528C195.7 193.764 196.071 193.881 196.512 193.881ZM205.914 195V184.818H207.45V193.678H212.063V195H205.914ZM218.534 191.833V187.364H220.025V195H218.564V193.678H218.484C218.309 194.085 218.027 194.425 217.639 194.697C217.255 194.965 216.776 195.099 216.202 195.099C215.712 195.099 215.278 194.992 214.9 194.776C214.525 194.558 214.23 194.234 214.015 193.807C213.803 193.379 213.697 192.851 213.697 192.221V187.364H215.183V192.042C215.183 192.562 215.327 192.977 215.616 193.285C215.904 193.593 216.278 193.747 216.739 193.747C217.018 193.747 217.294 193.678 217.569 193.538C217.848 193.399 218.078 193.189 218.26 192.907C218.446 192.625 218.537 192.267 218.534 191.833ZM223.196 187.364L224.881 190.337L226.582 187.364H228.207L225.826 191.182L228.227 195H226.602L224.881 192.146L223.166 195H221.536L223.912 191.182L221.565 187.364H223.196ZM234.571 191.833V187.364H236.062V195H234.601V193.678H234.521C234.346 194.085 234.064 194.425 233.676 194.697C233.292 194.965 232.813 195.099 232.239 195.099C231.749 195.099 231.315 194.992 230.937 194.776C230.562 194.558 230.267 194.234 230.052 193.807C229.84 193.379 229.734 192.851 229.734 192.221V187.364H231.22V192.042C231.22 192.562 231.364 192.977 231.653 193.285C231.941 193.593 232.316 193.747 232.776 193.747C233.055 193.747 233.331 193.678 233.607 193.538C233.885 193.399 234.115 193.189 234.298 192.907C234.483 192.625 234.574 192.267 234.571 191.833ZM238.06 195V187.364H239.497V188.577H239.576C239.715 188.166 239.961 187.843 240.312 187.607C240.667 187.369 241.068 187.249 241.515 187.249C241.608 187.249 241.717 187.253 241.843 187.259C241.972 187.266 242.074 187.274 242.146 187.284V188.706C242.087 188.689 241.981 188.671 241.828 188.651C241.676 188.628 241.523 188.616 241.371 188.616C241.02 188.616 240.706 188.691 240.431 188.84C240.16 188.986 239.944 189.19 239.785 189.452C239.626 189.71 239.546 190.005 239.546 190.337V195H238.06ZM244.605 197.864C244.383 197.864 244.181 197.845 243.998 197.809C243.816 197.776 243.68 197.739 243.591 197.7L243.949 196.482C244.22 196.554 244.462 196.586 244.675 196.576C244.887 196.566 245.074 196.487 245.236 196.337C245.402 196.188 245.548 195.945 245.674 195.607L245.858 195.099L243.064 187.364H244.655L246.589 193.29H246.668L248.602 187.364H250.198L247.051 196.019C246.905 196.417 246.72 196.753 246.494 197.028C246.269 197.307 246 197.516 245.689 197.655C245.377 197.794 245.016 197.864 244.605 197.864ZM66.9775 215.169C66.4935 215.169 66.056 215.08 65.665 214.901C65.2739 214.718 64.964 214.455 64.7353 214.11C64.5099 213.765 64.3972 213.343 64.3972 212.842C64.3972 212.411 64.4801 212.057 64.6458 211.778C64.8115 211.5 65.0352 211.28 65.3169 211.117C65.5987 210.955 65.9135 210.832 66.2615 210.749C66.6096 210.666 66.9642 210.603 67.3255 210.56C67.7828 210.507 68.1541 210.464 68.4391 210.431C68.7241 210.395 68.9313 210.337 69.0605 210.257C69.1898 210.178 69.2544 210.048 69.2544 209.869V209.835C69.2544 209.4 69.1318 209.064 68.8865 208.825C68.6446 208.587 68.2833 208.467 67.8027 208.467C67.3023 208.467 66.9078 208.578 66.6195 208.8C66.3345 209.019 66.1373 209.263 66.0279 209.531L64.6309 209.213C64.7966 208.749 65.0385 208.375 65.3567 208.089C65.6782 207.801 66.0478 207.592 66.4654 207.463C66.883 207.33 67.3221 207.264 67.7828 207.264C68.0878 207.264 68.4109 207.301 68.7523 207.374C69.097 207.443 69.4185 207.572 69.7168 207.761C70.0184 207.95 70.2653 208.22 70.4576 208.572C70.6498 208.92 70.7459 209.372 70.7459 209.929V215H69.2942V213.956H69.2346C69.1384 214.148 68.9943 214.337 68.802 214.523C68.6098 214.708 68.3629 214.862 68.0613 214.985C67.7596 215.108 67.3984 215.169 66.9775 215.169ZM67.3006 213.976C67.7116 213.976 68.0629 213.895 68.3546 213.732C68.6496 213.57 68.8733 213.358 69.0257 213.096C69.1815 212.831 69.2594 212.547 69.2594 212.246V211.261C69.2064 211.314 69.1036 211.364 68.9512 211.411C68.802 211.454 68.6313 211.492 68.4391 211.525C68.2469 211.555 68.0596 211.583 67.8773 211.609C67.695 211.633 67.5426 211.652 67.4199 211.669C67.1316 211.705 66.8681 211.767 66.6294 211.853C66.3941 211.939 66.2052 212.063 66.0627 212.226C65.9235 212.385 65.8539 212.597 65.8539 212.862C65.8539 213.23 65.9898 213.509 66.2615 213.697C66.5333 213.883 66.8797 213.976 67.3006 213.976ZM74.2124 210.466V215H72.7259V207.364H74.1527V208.607H74.2472C74.4228 208.202 74.6979 207.877 75.0724 207.632C75.4503 207.387 75.9259 207.264 76.4993 207.264C77.0196 207.264 77.4754 207.374 77.8665 207.592C78.2576 207.808 78.5608 208.129 78.7763 208.557C78.9917 208.984 79.0994 209.513 79.0994 210.143V215H77.6129V210.322C77.6129 209.768 77.4688 209.336 77.1804 209.024C76.892 208.709 76.496 208.552 75.9922 208.552C75.6475 208.552 75.3409 208.626 75.0724 208.776C74.8073 208.925 74.5968 209.143 74.4411 209.432C74.2886 209.717 74.2124 210.062 74.2124 210.466ZM83.9517 215.149C83.3352 215.149 82.785 214.992 82.3011 214.677C81.8205 214.359 81.4427 213.906 81.1676 213.32C80.8958 212.73 80.7599 212.022 80.7599 211.197C80.7599 210.371 80.8975 209.665 81.1726 209.079C81.451 208.492 81.8321 208.043 82.3161 207.732C82.8 207.42 83.3485 207.264 83.9616 207.264C84.4356 207.264 84.8168 207.344 85.1051 207.503C85.3968 207.659 85.6222 207.841 85.7812 208.05C85.9437 208.259 86.0696 208.442 86.1591 208.602H86.2486V204.818H87.7351V215H86.2834V213.812H86.1591C86.0696 213.974 85.9403 214.16 85.7713 214.369C85.6056 214.577 85.3769 214.76 85.0852 214.915C84.7936 215.071 84.4157 215.149 83.9517 215.149ZM84.2798 213.881C84.7074 213.881 85.0687 213.769 85.3636 213.543C85.6619 213.315 85.8873 212.998 86.0398 212.594C86.1955 212.189 86.2734 211.719 86.2734 211.182C86.2734 210.652 86.1972 210.187 86.0447 209.79C85.8923 209.392 85.6686 209.082 85.3736 208.86C85.0786 208.638 84.714 208.527 84.2798 208.527C83.8324 208.527 83.4595 208.643 83.1612 208.875C82.8629 209.107 82.6375 209.424 82.4851 209.825C82.3359 210.226 82.2614 210.678 82.2614 211.182C82.2614 211.692 82.3376 212.151 82.4901 212.559C82.6425 212.967 82.8679 213.29 83.1662 213.528C83.4678 213.764 83.839 213.881 84.2798 213.881ZM102.138 208.129H100.587C100.527 207.798 100.416 207.506 100.254 207.254C100.091 207.002 99.8923 206.789 99.657 206.613C99.4216 206.437 99.1581 206.305 98.8665 206.215C98.5781 206.126 98.2715 206.081 97.9467 206.081C97.3601 206.081 96.8348 206.228 96.3707 206.523C95.91 206.818 95.5455 207.251 95.277 207.821C95.0118 208.391 94.8793 209.087 94.8793 209.909C94.8793 210.738 95.0118 211.437 95.277 212.007C95.5455 212.577 95.9117 213.008 96.3757 213.3C96.8397 213.591 97.3617 213.737 97.9418 213.737C98.2633 213.737 98.5682 213.694 98.8565 213.608C99.1482 213.518 99.4117 213.388 99.647 213.215C99.8823 213.043 100.081 212.832 100.244 212.584C100.409 212.332 100.524 212.044 100.587 211.719L102.138 211.724C102.055 212.224 101.894 212.685 101.656 213.106C101.42 213.523 101.117 213.885 100.746 214.19C100.378 214.491 99.9569 214.725 99.483 214.891C99.009 215.056 98.492 215.139 97.9318 215.139C97.0502 215.139 96.2647 214.93 95.5753 214.513C94.8859 214.092 94.3423 213.49 93.9446 212.708C93.5502 211.926 93.353 210.993 93.353 209.909C93.353 208.822 93.5518 207.889 93.9496 207.11C94.3473 206.328 94.8909 205.728 95.5803 205.31C96.2696 204.889 97.0535 204.679 97.9318 204.679C98.4721 204.679 98.9759 204.757 99.4432 204.913C99.9138 205.065 100.336 205.29 100.711 205.589C101.085 205.884 101.395 206.245 101.641 206.673C101.886 207.097 102.052 207.582 102.138 208.129ZM107.073 215.154C106.357 215.154 105.733 214.99 105.199 214.662C104.665 214.334 104.251 213.875 103.956 213.285C103.661 212.695 103.514 212.005 103.514 211.217C103.514 210.424 103.661 209.732 103.956 209.138C104.251 208.545 104.665 208.085 105.199 207.756C105.733 207.428 106.357 207.264 107.073 207.264C107.789 207.264 108.414 207.428 108.948 207.756C109.481 208.085 109.896 208.545 110.191 209.138C110.485 209.732 110.633 210.424 110.633 211.217C110.633 212.005 110.485 212.695 110.191 213.285C109.896 213.875 109.481 214.334 108.948 214.662C108.414 214.99 107.789 215.154 107.073 215.154ZM107.078 213.906C107.542 213.906 107.927 213.784 108.232 213.538C108.537 213.293 108.762 212.967 108.908 212.559C109.057 212.151 109.132 211.702 109.132 211.212C109.132 210.724 109.057 210.277 108.908 209.869C108.762 209.458 108.537 209.129 108.232 208.88C107.927 208.631 107.542 208.507 107.078 208.507C106.611 208.507 106.223 208.631 105.915 208.88C105.61 209.129 105.383 209.458 105.234 209.869C105.088 210.277 105.015 210.724 105.015 211.212C105.015 211.702 105.088 212.151 105.234 212.559C105.383 212.967 105.61 213.293 105.915 213.538C106.223 213.784 106.611 213.906 107.078 213.906ZM112.292 215V207.364H113.719V208.607H113.814C113.973 208.186 114.233 207.857 114.594 207.622C114.955 207.384 115.388 207.264 115.892 207.264C116.402 207.264 116.83 207.384 117.174 207.622C117.522 207.861 117.779 208.189 117.945 208.607H118.025C118.207 208.199 118.497 207.874 118.895 207.632C119.292 207.387 119.766 207.264 120.316 207.264C121.009 207.264 121.574 207.481 122.012 207.915C122.453 208.35 122.673 209.004 122.673 209.879V215H121.186V210.018C121.186 209.501 121.046 209.127 120.764 208.895C120.482 208.663 120.146 208.547 119.755 208.547C119.271 208.547 118.895 208.696 118.626 208.994C118.358 209.289 118.223 209.669 118.223 210.133V215H116.742V209.924C116.742 209.51 116.613 209.177 116.354 208.925C116.096 208.673 115.759 208.547 115.345 208.547C115.063 208.547 114.803 208.621 114.564 208.771C114.329 208.916 114.138 209.12 113.993 209.382C113.85 209.644 113.779 209.947 113.779 210.292V215H112.292ZM128.3 207.364V208.557H123.984V207.364H128.3ZM125.167 215V206.479C125.167 206.001 125.272 205.605 125.481 205.29C125.689 204.972 125.966 204.735 126.311 204.58C126.656 204.42 127.03 204.341 127.434 204.341C127.733 204.341 127.988 204.366 128.2 204.415C128.412 204.462 128.57 204.505 128.672 204.545L128.324 205.748C128.255 205.728 128.165 205.705 128.056 205.678C127.947 205.648 127.814 205.634 127.658 205.634C127.297 205.634 127.038 205.723 126.883 205.902C126.73 206.081 126.654 206.339 126.654 206.678V215H125.167ZM132.749 215.154C132.033 215.154 131.408 214.99 130.875 214.662C130.341 214.334 129.927 213.875 129.632 213.285C129.337 212.695 129.189 212.005 129.189 211.217C129.189 210.424 129.337 209.732 129.632 209.138C129.927 208.545 130.341 208.085 130.875 207.756C131.408 207.428 132.033 207.264 132.749 207.264C133.465 207.264 134.09 207.428 134.623 207.756C135.157 208.085 135.571 208.545 135.866 209.138C136.161 209.732 136.309 210.424 136.309 211.217C136.309 212.005 136.161 212.695 135.866 213.285C135.571 213.875 135.157 214.334 134.623 214.662C134.09 214.99 133.465 215.154 132.749 215.154ZM132.754 213.906C133.218 213.906 133.603 213.784 133.907 213.538C134.212 213.293 134.438 212.967 134.584 212.559C134.733 212.151 134.807 211.702 134.807 211.212C134.807 210.724 134.733 210.277 134.584 209.869C134.438 209.458 134.212 209.129 133.907 208.88C133.603 208.631 133.218 208.507 132.754 208.507C132.287 208.507 131.899 208.631 131.591 208.88C131.286 209.129 131.059 209.458 130.91 209.869C130.764 210.277 130.691 210.724 130.691 211.212C130.691 211.702 130.764 212.151 130.91 212.559C131.059 212.967 131.286 213.293 131.591 213.538C131.899 213.784 132.287 213.906 132.754 213.906ZM137.968 215V207.364H139.405V208.577H139.484C139.624 208.166 139.869 207.843 140.22 207.607C140.575 207.369 140.976 207.249 141.423 207.249C141.516 207.249 141.625 207.253 141.751 207.259C141.881 207.266 141.982 207.274 142.055 207.284V208.706C141.995 208.689 141.889 208.671 141.737 208.651C141.584 208.628 141.432 208.616 141.279 208.616C140.928 208.616 140.615 208.691 140.339 208.84C140.068 208.986 139.852 209.19 139.693 209.452C139.534 209.71 139.455 210.005 139.455 210.337V215H137.968ZM147.357 207.364V208.557H143.186V207.364H147.357ZM144.304 205.534H145.791V212.758C145.791 213.046 145.834 213.263 145.92 213.409C146.006 213.552 146.117 213.649 146.253 213.702C146.392 213.752 146.543 213.777 146.706 213.777C146.825 213.777 146.929 213.769 147.019 213.752C147.108 213.736 147.178 213.722 147.228 213.712L147.496 214.94C147.41 214.973 147.287 215.007 147.128 215.04C146.969 215.076 146.77 215.096 146.532 215.099C146.141 215.106 145.776 215.036 145.438 214.891C145.1 214.745 144.826 214.519 144.618 214.214C144.409 213.91 144.304 213.527 144.304 213.066V205.534ZM152.706 215V207.364H154.193V215H152.706ZM153.457 206.185C153.199 206.185 152.976 206.099 152.791 205.927C152.609 205.751 152.517 205.542 152.517 205.3C152.517 205.055 152.609 204.846 152.791 204.674C152.976 204.498 153.199 204.411 153.457 204.411C153.716 204.411 153.936 204.498 154.118 204.674C154.304 204.846 154.397 205.055 154.397 205.3C154.397 205.542 154.304 205.751 154.118 205.927C153.936 206.099 153.716 206.185 153.457 206.185ZM157.679 210.466V215H156.193V207.364H157.619V208.607H157.714C157.89 208.202 158.165 207.877 158.539 207.632C158.917 207.387 159.393 207.264 159.966 207.264C160.486 207.264 160.942 207.374 161.333 207.592C161.724 207.808 162.028 208.129 162.243 208.557C162.459 208.984 162.566 209.513 162.566 210.143V215H161.08V210.322C161.08 209.768 160.936 209.336 160.647 209.024C160.359 208.709 159.963 208.552 159.459 208.552C159.114 208.552 158.808 208.626 158.539 208.776C158.274 208.925 158.064 209.143 157.908 209.432C157.755 209.717 157.679 210.062 157.679 210.466ZM168.384 215V204.818H174.768V206.141H169.92V209.243H174.435V210.56H169.92V213.678H174.827V215H168.384ZM183.233 207.364L180.464 215H178.873L176.099 207.364H177.695L179.629 213.24H179.708L181.637 207.364H183.233ZM187.662 215.154C186.909 215.154 186.261 214.993 185.718 214.672C185.177 214.347 184.76 213.891 184.465 213.305C184.173 212.715 184.027 212.024 184.027 211.232C184.027 210.449 184.173 209.76 184.465 209.163C184.76 208.567 185.171 208.101 185.698 207.766C186.228 207.432 186.848 207.264 187.557 207.264C187.988 207.264 188.406 207.335 188.81 207.478C189.214 207.621 189.577 207.844 189.899 208.149C190.22 208.454 190.474 208.85 190.659 209.337C190.845 209.821 190.938 210.41 190.938 211.102V211.629H184.868V210.516H189.481C189.481 210.125 189.402 209.778 189.243 209.477C189.083 209.172 188.86 208.931 188.571 208.756C188.286 208.58 187.952 208.492 187.567 208.492C187.15 208.492 186.785 208.595 186.473 208.8C186.165 209.003 185.926 209.268 185.757 209.596C185.592 209.921 185.509 210.274 185.509 210.655V211.525C185.509 212.035 185.598 212.469 185.777 212.827C185.96 213.185 186.213 213.459 186.538 213.648C186.863 213.833 187.242 213.926 187.676 213.926C187.958 213.926 188.215 213.886 188.447 213.807C188.679 213.724 188.88 213.601 189.049 213.439C189.218 213.277 189.347 213.076 189.436 212.837L190.843 213.091C190.731 213.505 190.529 213.868 190.237 214.18C189.949 214.488 189.586 214.728 189.148 214.901C188.714 215.07 188.218 215.154 187.662 215.154ZM192.587 215V207.364H194.024V208.577H194.104C194.243 208.166 194.488 207.843 194.839 207.607C195.194 207.369 195.595 207.249 196.042 207.249C196.135 207.249 196.245 207.253 196.371 207.259C196.5 207.266 196.601 207.274 196.674 207.284V208.706C196.614 208.689 196.508 208.671 196.356 208.651C196.203 208.628 196.051 208.616 195.898 208.616C195.547 208.616 195.234 208.691 194.959 208.84C194.687 208.986 194.471 209.19 194.312 209.452C194.153 209.71 194.074 210.005 194.074 210.337V215H192.587ZM199.132 217.864C198.91 217.864 198.708 217.845 198.526 217.809C198.343 217.776 198.208 217.739 198.118 217.7L198.476 216.482C198.748 216.554 198.99 216.586 199.202 216.576C199.414 216.566 199.601 216.487 199.764 216.337C199.929 216.188 200.075 215.945 200.201 215.607L200.385 215.099L197.591 207.364H199.182L201.116 213.29H201.195L203.129 207.364H204.725L201.578 216.019C201.432 216.417 201.247 216.753 201.021 217.028C200.796 217.307 200.528 217.516 200.216 217.655C199.905 217.794 199.543 217.864 199.132 217.864ZM209.947 215V204.818H211.483V209.243H216.559V204.818H218.1V215H216.559V210.56H211.483V215H209.947ZM223.435 215.154C222.719 215.154 222.094 214.99 221.56 214.662C221.027 214.334 220.612 213.875 220.317 213.285C220.022 212.695 219.875 212.005 219.875 211.217C219.875 210.424 220.022 209.732 220.317 209.138C220.612 208.545 221.027 208.085 221.56 207.756C222.094 207.428 222.719 207.264 223.435 207.264C224.151 207.264 224.775 207.428 225.309 207.756C225.843 208.085 226.257 208.545 226.552 209.138C226.847 209.732 226.994 210.424 226.994 211.217C226.994 212.005 226.847 212.695 226.552 213.285C226.257 213.875 225.843 214.334 225.309 214.662C224.775 214.99 224.151 215.154 223.435 215.154ZM223.44 213.906C223.904 213.906 224.288 213.784 224.593 213.538C224.898 213.293 225.123 212.967 225.269 212.559C225.418 212.151 225.493 211.702 225.493 211.212C225.493 210.724 225.418 210.277 225.269 209.869C225.123 209.458 224.898 209.129 224.593 208.88C224.288 208.631 223.904 208.507 223.44 208.507C222.972 208.507 222.585 208.631 222.276 208.88C221.971 209.129 221.744 209.458 221.595 209.869C221.449 210.277 221.376 210.724 221.376 211.212C221.376 211.702 221.449 212.151 221.595 212.559C221.744 212.967 221.971 213.293 222.276 213.538C222.585 213.784 222.972 213.906 223.44 213.906ZM228.654 215V207.364H230.08V208.607H230.175C230.334 208.186 230.594 207.857 230.955 207.622C231.317 207.384 231.749 207.264 232.253 207.264C232.763 207.264 233.191 207.384 233.536 207.622C233.884 207.861 234.141 208.189 234.306 208.607H234.386C234.568 208.199 234.858 207.874 235.256 207.632C235.654 207.387 236.128 207.264 236.678 207.264C237.37 207.264 237.936 207.481 238.373 207.915C238.814 208.35 239.034 209.004 239.034 209.879V215H237.548V210.018C237.548 209.501 237.407 209.127 237.125 208.895C236.843 208.663 236.507 208.547 236.116 208.547C235.632 208.547 235.256 208.696 234.987 208.994C234.719 209.289 234.585 209.669 234.585 210.133V215H233.103V209.924C233.103 209.51 232.974 209.177 232.715 208.925C232.457 208.673 232.12 208.547 231.706 208.547C231.424 208.547 231.164 208.621 230.926 208.771C230.69 208.916 230.5 209.12 230.354 209.382C230.211 209.644 230.14 209.947 230.14 210.292V215H228.654ZM244.318 215.154C243.565 215.154 242.917 214.993 242.374 214.672C241.834 214.347 241.416 213.891 241.121 213.305C240.829 212.715 240.684 212.024 240.684 211.232C240.684 210.449 240.829 209.76 241.121 209.163C241.416 208.567 241.827 208.101 242.354 207.766C242.884 207.432 243.504 207.264 244.213 207.264C244.644 207.264 245.062 207.335 245.466 207.478C245.871 207.621 246.234 207.844 246.555 208.149C246.877 208.454 247.13 208.85 247.316 209.337C247.501 209.821 247.594 210.41 247.594 211.102V211.629H241.524V210.516H246.137C246.137 210.125 246.058 209.778 245.899 209.477C245.74 209.172 245.516 208.931 245.228 208.756C244.943 208.58 244.608 208.492 244.223 208.492C243.806 208.492 243.441 208.595 243.13 208.8C242.821 209.003 242.583 209.268 242.414 209.596C242.248 209.921 242.165 210.274 242.165 210.655V211.525C242.165 212.035 242.255 212.469 242.434 212.827C242.616 213.185 242.869 213.459 243.194 213.648C243.519 213.833 243.899 213.926 244.333 213.926C244.614 213.926 244.871 213.886 245.103 213.807C245.335 213.724 245.536 213.601 245.705 213.439C245.874 213.277 246.003 213.076 246.093 212.837L247.5 213.091C247.387 213.505 247.185 213.868 246.893 214.18C246.605 214.488 246.242 214.728 245.804 214.901C245.37 215.07 244.875 215.154 244.318 215.154Z" fill="#777777"/>
</svg>
