<svg width="76" height="76" viewBox="0 0 76 76" fill="none" xmlns="http://www.w3.org/2000/svg">
<circle cx="38" cy="38" r="38" fill="#2F80ED"/>
<path d="M36.8462 61.4228C37.9757 59.551 36.921 57.186 34.4347 57.1003C34.1524 55.4871 33.1923 54.613 31.515 54.5189C31.2327 52.9001 30.2712 52.026 28.5911 51.9417C28.3581 50.5477 27.6028 49.6273 26.1585 49.4123C24.6831 49.1916 23.8374 50.2034 22.931 51.1449L20.7242 49.6779C20.0084 49.2001 19.2912 48.7237 18.5175 48.2094L23.0482 37.4018C23.1329 37.4018 23.1766 37.3877 23.1978 37.4018C24.2256 38.1395 25.3834 38.2449 26.6131 38.2013C28.0927 38.1423 29.578 38.1536 31.0576 38.2013C31.82 38.2252 32.5753 38.3967 33.3349 38.5021L33.3533 38.6918C33.1259 38.866 32.9015 39.0445 32.6713 39.2145C31.3258 40.2066 29.9733 41.1903 28.6363 42.1922C26.8813 43.5047 27.0296 45.8725 28.9455 46.9363C30.339 47.7105 31.7508 47.6698 33.1175 46.8562C34.247 46.1802 35.3609 45.465 36.4819 44.768C36.6443 44.6668 36.8123 44.5727 36.993 44.4659C37.0441 44.5186 37.0913 44.575 37.1342 44.6345C38.7861 47.4182 41.2187 48.4511 44.4024 47.726C44.4193 47.7224 44.4359 47.7172 44.4518 47.7105C45.4076 47.237 46.1545 47.5574 46.9579 48.1771C48.6704 49.4966 50.4677 50.7065 52.2227 51.9712C52.8396 52.4167 53.0274 53.0518 52.7676 53.6772C52.498 54.3292 51.8457 54.7381 51.1638 54.606C50.8591 54.5319 50.5749 54.3907 50.3322 54.1929C49.5514 53.59 48.8017 52.9506 48.0309 52.338C47.5494 51.9543 47.0751 51.9642 46.7687 52.338C46.4623 52.7118 46.5611 53.1811 47.0327 53.5605C47.4831 53.9273 47.9447 54.2786 48.3895 54.6524C49.0629 55.2145 49.1745 56.0084 48.6888 56.6548C48.1071 57.4277 47.2868 57.5907 46.516 57.068C45.8905 56.6464 45.2834 56.1897 44.6608 55.7597C44.1878 55.4337 43.7247 55.4787 43.4494 55.8721C43.1741 56.2656 43.2899 56.6984 43.7516 57.0469C43.8631 57.1312 43.9803 57.2099 44.0946 57.2928C44.905 57.8788 45.0829 58.7191 44.5295 59.4203C43.8758 60.2635 42.9976 60.3604 42.1929 59.6803C41.7354 59.2953 41.2949 58.8906 40.8389 58.5027C40.4055 58.1331 39.9918 58.1191 39.6586 58.4465C39.3254 58.7739 39.3395 59.1871 39.7066 59.6157C39.9226 59.8686 40.164 60.1033 40.3702 60.3661C40.5861 60.6259 40.6983 60.9559 40.6853 61.2929C40.6722 61.6299 40.5349 61.9503 40.2996 62.1929C39.7673 62.7943 39.0289 62.9545 38.4035 62.5512C37.8712 62.2111 37.3784 61.812 36.8462 61.4228Z" fill="white"/>
<path d="M52.5262 37.4724C53.9889 41.1457 55.4375 44.7866 56.903 48.4613C55.7862 49.2243 54.6948 49.9958 53.5795 50.7293C53.4736 50.7996 53.1898 50.704 53.0472 50.6029C50.9068 49.088 48.7693 47.5704 46.6501 46.026C46.1856 45.6874 45.779 45.6719 45.2382 45.8223C44.3121 46.0752 43.3492 46.331 42.4004 46.3338C40.3405 46.3338 39.0445 45.1604 38.2976 43.3294C37.9121 42.3837 37.5521 42.2586 36.6627 42.8109L32.4017 45.4583C31.4995 46.0204 30.5776 46.0738 29.6556 45.5244C28.8452 45.041 28.7718 44.0742 29.5229 43.5149C32.1207 41.5832 34.7279 39.6627 37.3446 37.7534C38.371 37.0058 39.5386 36.8611 40.7711 37.0916C43.352 37.575 45.9315 38.0598 48.5152 38.5221C48.8238 38.5701 49.1394 38.5485 49.4385 38.4589C50.4593 38.1581 51.4716 37.8139 52.5262 37.4724Z" fill="white"/>
<path d="M57.815 33.4268C59.5474 37.9319 61.2656 42.3992 63.0022 46.91C61.6652 47.4833 60.362 48.051 59.049 48.5962C58.6424 48.7677 58.5859 48.4023 58.4843 48.1564C57.4847 45.6551 56.4884 43.1519 55.4954 40.6468C54.8219 38.9606 54.1598 37.2616 53.4708 35.5782C53.3084 35.1819 53.3578 34.9824 53.7899 34.8376C55.1325 34.3922 56.4441 33.9073 57.815 33.4268Z" fill="white"/>
<path d="M12.4297 47.053L18.2183 33.4883C19.4692 34.0841 20.6707 34.6546 21.8707 35.2308C22.2378 35.4064 22.05 35.6664 21.9526 35.8997C20.8787 38.4684 19.8043 41.0363 18.7294 43.6031C18.0705 45.1854 17.4069 46.7673 16.7387 48.3486C16.4761 48.9739 16.4563 48.9838 15.8633 48.7013L12.4297 47.053Z" fill="white"/>
<path d="M29.5977 60.4267C29.3154 60.2075 28.9582 60.0178 28.7379 59.7241C28.6059 59.5531 28.5391 59.3411 28.5494 59.1257C28.5598 58.9103 28.6466 58.7056 28.7944 58.5479C29.5003 57.7877 30.2303 57.05 30.9983 56.3544C31.4219 55.9651 32.0868 56.0635 32.4864 56.4696C32.8859 56.8757 32.9692 57.5235 32.5725 57.9521C31.8821 58.7011 31.1451 59.4079 30.3997 60.1035C30.2359 60.2553 29.9578 60.2862 29.5977 60.4267Z" fill="white"/>
<path d="M35.728 60.0261C35.6645 60.1469 35.5784 60.4477 35.3878 60.65C34.7623 61.3161 34.1171 61.9597 33.4451 62.585C33.3397 62.6927 33.2135 62.7781 33.0742 62.836C32.9348 62.8939 32.7851 62.9232 32.6341 62.922C32.483 62.9208 32.3338 62.8892 32.1954 62.8291C32.0569 62.7691 31.9321 62.6817 31.8285 62.5724C31.3823 62.1255 31.3668 61.4594 31.8285 60.9648C32.4455 60.3142 33.0865 59.6846 33.7331 59.0649C34.1044 58.708 34.5562 58.5885 35.0475 58.8134C35.4951 59.0143 35.7224 59.367 35.728 60.0261Z" fill="white"/>
<path d="M24.0252 55.1622C23.3997 55.1468 23.0552 54.9318 22.8618 54.513C22.6684 54.0943 22.6783 53.6699 22.9931 53.3312C23.6793 52.6047 24.3838 51.8909 25.1194 51.2149C25.5429 50.8201 26.1938 50.8833 26.6117 51.2754C27.0296 51.6674 27.1298 52.3504 26.7232 52.793C26.047 53.5294 25.3269 54.2264 24.5956 54.9093C24.4191 55.0737 24.1311 55.1173 24.0252 55.1622Z" fill="white"/>
<path d="M29.8802 54.8445C29.8039 54.9963 29.739 55.2872 29.5526 55.4783C28.9295 56.1434 28.2857 56.7879 27.6212 57.4119C27.5167 57.5196 27.3916 57.6054 27.2533 57.6644C27.1149 57.7233 26.9662 57.7541 26.8157 57.755C26.6653 57.756 26.5161 57.7269 26.3771 57.6697C26.238 57.6125 26.1119 57.5281 26.0061 57.4217C25.5387 56.9636 25.526 56.2877 26.0145 55.7776C26.6188 55.1452 27.2414 54.5269 27.8753 53.9227C28.2467 53.57 28.6985 53.4547 29.1884 53.681C29.6289 53.8889 29.8322 54.2557 29.8802 54.8445Z" fill="white"/>
<path d="M33.6484 31.659H29.0048C28.995 31.451 28.9794 31.2641 28.9794 31.0786C28.9794 27.7665 28.9794 24.4557 28.9681 21.145C28.9681 20.7164 29.1093 20.5 29.4863 20.3019C32.101 18.9257 34.7068 17.5331 37.3037 16.1241C37.4252 16.045 37.5673 16.0029 37.7124 16.0029C37.8576 16.0029 37.9997 16.045 38.1212 16.1241C40.767 17.5533 43.4255 18.9613 46.0685 20.396C46.1652 20.4537 46.2479 20.5317 46.3108 20.6248C46.3738 20.7178 46.4154 20.8234 46.4328 20.9342C46.4525 24.4389 46.4455 27.9421 46.4441 31.4468C46.438 31.5134 46.4276 31.5796 46.413 31.6449H41.7793C41.7793 31.4664 41.7793 31.2796 41.7793 31.0913C41.7793 29.8265 41.8118 28.5618 41.751 27.3084C41.648 25.171 39.8521 23.5409 37.6906 23.5536C35.529 23.5662 33.7783 25.1823 33.6724 27.3027C33.6117 28.5675 33.6498 29.8251 33.6442 31.0856C33.647 31.2669 33.6484 31.4552 33.6484 31.659Z" fill="white"/>
<path d="M26.8631 19.8939C26.8631 19.3234 26.8264 18.8484 26.8814 18.3847C26.9026 18.2133 27.1073 18.0109 27.281 17.9168C30.0962 16.3982 32.9171 14.8894 35.7436 13.3905C36.2858 13.0996 36.8194 12.7891 37.3785 12.5347C37.4813 12.4892 37.5922 12.4645 37.7047 12.4621C37.8171 12.4597 37.929 12.4796 38.0336 12.5207C41.4381 14.3194 44.8341 16.134 48.2216 17.9645C48.3122 18.0309 48.3882 18.115 48.4451 18.2116C48.5019 18.3083 48.5382 18.4155 48.5519 18.5266C48.582 18.9898 48.5867 19.4542 48.5661 19.9178C47.3533 19.2714 46.2393 18.6812 45.1268 18.091C42.8777 16.891 40.6258 15.7021 38.3852 14.4796C38.1857 14.355 37.955 14.2889 37.7195 14.2889C37.484 14.2889 37.2533 14.355 37.0538 14.4796C33.8517 16.2094 30.6369 17.9168 27.4264 19.6312C27.2739 19.6986 27.1172 19.7703 26.8631 19.8939Z" fill="white"/>
<path d="M40.1782 31.6586H35.2367C35.2367 31.348 35.2367 31.0557 35.2367 30.7649C35.2367 29.6618 35.2113 28.5572 35.2536 27.4555C35.2717 26.8254 35.5382 26.2276 35.9955 25.7914C36.4528 25.3551 37.0642 25.1155 37.6975 25.1243C39.0303 25.1172 40.1217 26.0896 40.1683 27.4232C40.2163 28.82 40.1782 30.2196 40.1782 31.6586Z" fill="white"/>
</svg>
