<svg width="76" height="76" viewBox="0 0 76 76" fill="none" xmlns="http://www.w3.org/2000/svg">
<circle cx="38" cy="38" r="38" fill="#F19119"/>
<path d="M37.6612 63.0004H19.2738C18.2381 63.0004 17.9708 62.7335 17.9708 61.6953C17.9708 53.2658 17.968 44.8364 17.9624 36.4069C17.9516 36.2364 17.9836 36.0659 18.0555 35.911C18.1274 35.7561 18.2369 35.6218 18.3739 35.5204C24.6695 30.2941 30.9573 25.0585 37.2371 19.8135C37.5492 19.5522 37.7339 19.5325 38.0615 19.8009C44.3133 25.0243 50.5744 30.2375 56.8449 35.4403C57.0096 35.5606 57.1419 35.7202 57.2299 35.9046C57.3179 36.0891 57.3587 36.2926 57.3488 36.4968C57.3338 44.856 57.3301 53.2152 57.3376 61.5744C57.3376 62.7672 57.1108 62.999 55.9379 62.999L37.6612 63.0004ZM34.9122 31.2172C34.8199 31.3577 34.7233 31.4982 34.6239 31.6386C33.1962 33.6701 31.7462 35.689 30.3535 37.7458C30.012 38.2501 29.6901 38.3569 29.1204 38.2389C27.6872 37.9397 26.2413 37.6952 24.7955 37.4592C23.1159 37.1852 21.8366 38.1097 21.5329 39.7913C21.4713 40.1355 21.4167 40.4825 21.3551 40.8268C20.7043 44.5498 20.0353 48.2728 19.4096 51.9986C19.1465 53.5693 20.0842 54.8379 21.6491 55.1217C24.6009 55.6542 27.5556 56.1712 30.5103 56.6938C37.1223 57.8655 43.7343 59.0362 50.3463 60.2061C52.1658 60.5306 53.4871 59.6188 53.7852 57.8051C53.9014 57.1026 54.0302 56.3903 54.1533 55.6837C54.737 52.3386 55.343 48.9977 55.8945 45.6484C56.1451 44.1241 55.2143 42.8667 53.7054 42.5829C51.8201 42.2303 49.9264 41.9127 48.0452 41.5475C47.7705 41.4844 47.5264 41.3268 47.3552 41.1021C45.887 39.0552 44.4453 36.9899 42.9967 34.9289C42.1219 33.6856 41.2499 32.4408 40.3821 31.2059C41.8629 29.2391 41.1491 27.1949 40.0238 26.196C39.3799 25.6324 38.5575 25.3167 37.7033 25.3054C36.849 25.2941 36.0186 25.5878 35.3601 26.1342C33.8919 27.3733 33.7183 29.2714 34.9122 31.2172Z" fill="white"/>
<path d="M37.6611 17.3236C37.3763 17.474 37.1018 17.6435 36.8395 17.8308C33.0707 20.9563 29.3056 24.0869 25.5443 27.2226C22.2915 29.9294 19.0377 32.6353 15.7831 35.3402C15.0371 35.9612 14.6703 35.9261 14.0237 35.18C13.8166 34.9426 13.6038 34.708 13.4023 34.4692C12.8326 33.8046 12.8634 33.3761 13.524 32.8254L21.4279 26.249L36.7136 13.5304C37.5702 12.8181 37.7661 12.8209 38.6451 13.5529L61.6555 32.7285C62.4883 33.4211 62.5205 33.7934 61.8123 34.5928C61.6037 34.8288 61.3924 35.0662 61.1866 35.3023C60.6519 35.9022 60.232 35.9387 59.6106 35.4245C57.7276 33.8613 55.846 32.2948 53.9658 30.7251C48.8094 26.4289 43.6484 22.1336 38.4827 17.8393C38.2206 17.6493 37.9461 17.477 37.6611 17.3236Z" fill="white"/>
<path d="M57.2663 26.7266C55.8176 25.5184 54.4068 24.3509 53.0099 23.1637C52.9043 23.0333 52.8509 22.868 52.8601 22.7001C52.8489 21.5265 52.8489 20.353 52.8601 19.1794C52.8601 18.4559 53.1961 18.1243 53.9239 18.1145C54.7273 18.1047 55.5293 18.1004 56.3327 18.1145C56.9681 18.1271 57.3307 18.4601 57.3335 19.0825C57.3475 21.5523 57.3405 24.0221 57.3335 26.4906C57.32 26.5715 57.2975 26.6507 57.2663 26.7266Z" fill="white"/>
<path d="M24.4176 39.2237L28.3367 39.9135L47.7639 43.3443C49.5835 43.666 51.403 43.9849 53.2226 44.3151C53.9882 44.4555 54.2443 44.7983 54.1114 45.571C53.5095 49.0721 52.8909 52.5717 52.2778 56.0713C52.1966 56.5364 52.1085 57.0014 52.0259 57.4664C51.8677 58.3585 51.5234 58.6086 50.6556 58.4498L45.3481 57.5072C39.6851 56.5012 34.0174 55.4977 28.3451 54.4964C26.3016 54.134 24.2571 53.7757 22.2118 53.4217C21.295 53.2615 21.0472 52.9384 21.2082 52.0083C21.9006 48.025 22.6004 44.0444 23.3077 40.0666C23.4169 39.4653 23.7458 39.1956 24.4176 39.2237ZM25.6101 47.6363C25.7785 47.6827 25.951 47.7123 26.1252 47.7248C26.7117 47.6981 26.9216 48.0296 27.0504 48.5523C27.2603 49.3952 27.5291 50.2382 27.7908 51.067C27.9755 51.6613 28.429 51.917 28.9469 51.7498C29.427 51.5939 29.6467 51.1331 29.4872 50.5571C29.2716 49.7816 29.0533 49.0117 28.8041 48.2432C28.7062 47.9467 28.7748 47.8217 29.0449 47.6812C30.0946 47.1193 30.6615 46.0347 30.5033 44.9473C30.4285 44.3779 30.1748 43.8474 29.7791 43.4326C29.3835 43.0178 28.8665 42.7403 28.3031 42.6404C27.4829 42.4732 26.6571 42.3341 25.8313 42.1979C25.1132 42.0784 24.7255 42.3383 24.5954 43.0591C24.1923 45.2966 23.7985 47.537 23.4141 49.7802C23.2937 50.4826 23.582 50.9364 24.1419 51.0123C24.6766 51.0839 25.0643 50.7313 25.1804 50.0766C25.319 49.2842 25.459 48.4933 25.6101 47.6363ZM40.6593 49.8574L40.7642 49.842C40.8146 50.0077 40.865 50.1735 40.914 50.3393C41.2387 51.4281 41.5564 52.5197 41.8938 53.6057C42.0337 54.0567 42.3472 54.3082 42.8329 54.2773C43.292 54.2407 43.5524 53.964 43.6419 53.5172C43.6629 53.4132 43.6895 53.3121 43.7077 53.2081C44.094 51.0193 44.4785 48.8309 44.861 46.643C44.9744 45.9925 44.7015 45.5191 44.1696 45.4334C43.6097 45.342 43.2206 45.6624 43.1017 46.317C42.9211 47.3131 42.7448 48.3106 42.5418 49.4191C42.455 49.1718 42.4018 49.0299 42.357 48.8838C42.0407 47.8287 41.73 46.7765 41.4151 45.7157C41.2219 45.0723 40.907 44.7857 40.4283 44.811C39.9496 44.8363 39.6571 45.1664 39.5437 45.8155C39.3464 46.9535 39.1406 48.09 38.9433 49.228C38.7459 50.366 38.5332 51.5026 38.3694 52.6434C38.2896 53.1786 38.5906 53.5734 39.0552 53.6577C39.5661 53.749 39.9552 53.4877 40.1036 52.9454C40.1358 52.8274 40.1512 52.7052 40.1736 52.5858C40.3359 51.6763 40.4978 50.7669 40.6593 49.8574ZM33.5476 49.044C34.4504 49.2041 35.3042 49.3629 36.1594 49.502C36.3943 49.5455 36.6368 49.4938 36.8339 49.3582C37.0309 49.2226 37.1663 49.0141 37.2105 48.7784C37.2489 48.5516 37.1988 48.3186 37.0705 48.1279C36.9423 47.9372 36.7458 47.8034 36.5219 47.7543C36.3371 47.7051 36.1468 47.6798 35.962 47.6461L33.8625 47.2654C33.9661 46.6697 34.0655 46.1133 34.1718 45.505C35.0312 45.6567 35.8332 45.8057 36.638 45.9419C37.2735 46.0501 37.7396 45.7705 37.8417 45.2395C37.9439 44.7084 37.5814 44.294 36.939 44.1774C35.8934 43.9891 34.8395 43.8065 33.7981 43.6154C33.0563 43.4819 32.6588 43.7475 32.53 44.4766C32.1736 46.5091 31.8181 48.542 31.4635 50.5753C31.1836 52.1657 31.2424 52.2542 32.8072 52.5506C33.7156 52.7206 34.6267 52.8892 35.5393 53.0199C36.1202 53.1042 36.5345 52.7782 36.603 52.2654C36.6646 51.7906 36.3469 51.386 35.808 51.2595C35.7227 51.2399 35.6359 51.2356 35.5491 51.2202L33.2369 50.7987C33.3404 50.1791 33.4398 49.634 33.5476 49.044ZM48.2328 47.9987C48.2118 48.1491 48.202 48.253 48.1838 48.3542C47.8521 50.2508 47.5106 52.1474 47.1943 54.0441C47.0823 54.7128 47.3818 55.1497 47.9263 55.22C48.4484 55.286 48.8431 54.953 48.9536 54.3321C49.1762 53.0915 49.3861 51.8482 49.6045 50.6076C49.7444 49.842 49.8844 49.0777 50.0244 48.3092C50.643 48.4146 51.1735 48.5242 51.704 48.5902C52.2946 48.6661 52.7061 48.3781 52.7971 47.8695C52.8881 47.3609 52.5634 46.9282 51.9979 46.827C50.2819 46.5161 48.5636 46.2164 46.843 45.9279C46.2733 45.8324 45.838 46.1302 45.7414 46.6374C45.6448 47.1445 45.9584 47.5534 46.5364 47.6784C47.0809 47.7992 47.631 47.8877 48.2328 47.9987Z" fill="white"/>
<path d="M45.0065 41.0373L31.8721 38.7178C31.9855 38.5393 32.0611 38.4073 32.1521 38.2836C33.4775 36.3954 34.8114 34.5129 36.1271 32.619C36.3119 32.3535 36.47 32.3086 36.8045 32.3507C37.3966 32.4252 38.0068 32.3507 38.6087 32.3507C38.7697 32.3507 39.0034 32.3886 39.0804 32.4912C41.0539 35.2682 43.0162 38.0532 44.9673 40.8462C44.9897 40.8841 44.9855 40.9417 45.0065 41.0373Z" fill="white"/>
<path d="M35.8738 28.8724C35.8755 28.3977 36.0649 27.9431 36.4005 27.6086C36.5667 27.443 36.7637 27.3119 36.9804 27.2227C37.197 27.1335 37.4291 27.088 37.6633 27.0889C37.8974 27.0897 38.1291 27.1368 38.3452 27.2275C38.5612 27.3183 38.7573 27.4508 38.9223 27.6176C39.0873 27.7844 39.218 27.9822 39.3068 28.1996C39.3956 28.4171 39.4409 28.65 39.4401 28.8851C39.4384 29.3598 39.249 29.8143 38.9134 30.1488C38.5778 30.4833 38.1236 30.6703 37.6507 30.6686C37.1777 30.6669 36.7248 30.4767 36.3916 30.1399C36.0584 29.803 35.8721 29.3471 35.8738 28.8724Z" fill="white"/>
<path d="M25.9208 45.8659L26.2441 44.1084C26.8474 44.2124 27.4142 44.2938 27.9727 44.4105C28.1997 44.4466 28.4043 44.5687 28.5443 44.7516C28.6844 44.9346 28.7493 45.1644 28.7257 45.3939C28.7129 45.5121 28.6764 45.6264 28.6184 45.7301C28.5603 45.8337 28.482 45.9245 28.3881 45.997C28.2942 46.0694 28.1867 46.1221 28.072 46.1517C27.9573 46.1813 27.8378 46.1874 27.7207 46.1694C27.1357 46.102 26.5576 45.9755 25.9208 45.8659Z" fill="white"/>
</svg>
