<svg width="76" height="76" viewBox="0 0 76 76" fill="none" xmlns="http://www.w3.org/2000/svg">
<circle cx="38" cy="38" r="38" fill="#1EB66D"/>
<path d="M44.4647 24.0642C46.0953 25.8906 47.3288 28.0429 48.2616 30.3712C49.2061 32.7364 49.8447 35.1646 49.8315 37.7295C49.7893 43.8118 44.9502 48.7668 38.6943 49.1426C32.7576 49.496 27.3751 45.0351 26.602 39.1367C26.2576 36.5154 26.7748 34.0122 27.6178 31.5499C28.5136 28.9338 29.7919 26.5213 31.5663 24.3809C31.8117 24.0852 31.9951 23.9223 32.4252 24.1286C32.784 24.2994 33.2339 24.3322 33.6442 24.3336C36.6785 24.3493 39.7128 24.3559 42.7536 24.3336C43.2906 24.3322 43.8262 24.1706 44.4647 24.0642ZM37.561 29.4712C37.561 29.1742 37.5756 28.9456 37.561 28.713C37.5281 28.2781 37.2682 28.0455 36.8407 28.0442C36.4133 28.0429 36.1626 28.2952 36.1217 28.7196C36.1 28.9517 36.1 29.1852 36.1217 29.4173C36.16 29.7957 36.0333 30.0362 35.726 30.2911C34.5202 31.2766 34.0597 32.5721 34.4568 34.078C34.8526 35.5562 35.8539 36.4641 37.3698 36.7663C37.7323 36.8162 38.0975 36.8443 38.4634 36.8504C39.7048 36.9437 40.6587 38.0921 40.4951 39.2931C40.3341 40.4691 39.3922 41.2864 38.2286 41.264C37.065 41.2417 36.1679 40.3811 36.0531 39.1446C36.003 38.5967 35.7049 38.2945 35.2537 38.3326C34.8025 38.3707 34.5808 38.6939 34.594 39.2261C34.6151 40 34.7985 40.7884 35.3711 41.2746C36.1481 41.9315 36.1771 42.7199 36.1217 43.5832C36.1171 43.6663 36.1171 43.7497 36.1217 43.8328C36.1428 44.3019 36.437 44.6212 36.8447 44.6212C37.2523 44.6212 37.5558 44.3072 37.5716 43.8328C37.5835 43.4715 37.5716 43.1089 37.5716 42.7501H38.7167C38.7167 43.1588 38.7022 43.5228 38.7167 43.8854C38.7165 43.9812 38.7354 44.0761 38.7721 44.1647C38.8088 44.2532 38.8628 44.3337 38.9308 44.4015C38.9988 44.4692 39.0796 44.5229 39.1685 44.5595C39.2574 44.5961 39.3527 44.6148 39.4489 44.6147C39.8447 44.6147 40.1455 44.3164 40.1653 43.8736C40.1824 43.4584 40.1389 43.0379 40.1837 42.6279C40.2048 42.3968 40.3076 42.1807 40.474 42.0183C41.7603 40.9894 42.2774 39.4245 41.7932 37.92C41.3091 36.4155 39.9331 35.4116 38.2761 35.3551C37.993 35.3601 37.7103 35.3337 37.4331 35.2763C36.3038 34.978 35.6494 33.9242 35.8341 32.7456C35.9977 31.6944 36.9819 30.906 38.0848 30.9389C38.6344 30.9523 39.1593 31.1694 39.5567 31.5477C39.9542 31.9261 40.1956 32.4385 40.2339 32.9847C40.2893 33.6181 40.5742 33.9255 41.0597 33.8782C41.5452 33.8309 41.8341 33.4249 41.6864 32.8271C41.5294 32.1937 41.3816 31.4632 40.9687 31.0112C40.3486 30.3305 40.0663 29.6604 40.1587 28.7603C40.2035 28.3175 39.8579 28.0363 39.4423 28.039C39.0267 28.0416 38.7484 28.3188 38.7194 28.7708C38.7048 29.01 38.7194 29.2504 38.7194 29.4712H37.561Z" fill="white"/>
<path d="M58.5095 45.1336C58.7509 44.7302 58.999 44.3754 59.1876 43.9917C60.9836 40.3363 62.7734 36.6782 64.557 33.0175C64.9528 32.2015 65.6916 31.7889 66.5359 31.8743C66.9304 31.9092 67.3036 32.068 67.6016 32.3278C67.8996 32.5875 68.1071 32.9349 68.1942 33.3197C68.271 33.675 68.2587 34.0437 68.1586 34.3932C66.3934 39.9684 64.623 45.5409 62.7997 51.0964C62.5884 51.6719 62.2094 52.1715 61.7114 52.5312C56.8618 55.9738 51.9805 59.3717 47.1111 62.7881C46.7153 63.0653 46.3657 63.0719 45.9766 62.7657C44.1454 61.3204 42.313 59.875 40.4621 58.4598C40.0663 58.1524 40.0188 57.887 40.2668 57.456C40.9436 56.2734 41.6019 55.0777 42.2246 53.8649C42.4861 53.3331 42.9289 52.9111 43.4739 52.6744C47.7562 50.6641 52.0201 48.6103 56.2892 46.5724C56.4222 46.5022 56.5592 46.4399 56.6995 46.3858C56.9093 46.3059 57.1412 46.305 57.3517 46.3832C57.5622 46.4614 57.7369 46.6133 57.843 46.8105C57.9491 47.0077 57.9794 47.2367 57.9282 47.4546C57.8771 47.6724 57.7479 47.8642 57.5649 47.9941C57.3713 48.1248 57.1705 48.2445 56.9633 48.3528C54.7646 49.6046 52.5658 50.8577 50.367 52.1121C50.218 52.1863 50.0785 52.278 49.9515 52.3854C49.6467 52.6718 49.586 53.024 49.805 53.3787C50.024 53.7335 50.3763 53.8859 50.7945 53.7164C51.0219 53.6132 51.2423 53.4951 51.4541 53.363C53.5979 52.1436 55.7034 50.8533 57.8934 49.7246C59.7509 48.7641 60.2377 46.554 58.5095 45.1336Z" fill="white"/>
<path d="M17.747 45.1471C16.6375 46.1746 16.3381 47.3493 17.0083 48.4583C17.2671 48.8817 17.624 49.2372 18.0492 49.495C20.4238 50.8852 22.8183 52.232 25.2088 53.5894C25.7444 53.8929 26.218 53.8022 26.4647 53.3673C26.7114 52.9324 26.5544 52.4909 26.0082 52.1847C23.7945 50.9163 21.5795 49.6523 19.3631 48.3926C19.189 48.2941 19.0122 48.1995 18.8433 48.0943C18.3328 47.7777 18.1705 47.2902 18.4133 46.8224C18.656 46.3547 19.1666 46.2009 19.7048 46.4479C20.3565 46.7462 20.999 47.0629 21.6455 47.3677C25.5267 49.216 29.4062 51.067 33.284 52.9205C33.4853 53.0306 33.6499 53.1968 33.7576 53.3988C34.5346 54.793 35.2839 56.2028 36.0584 57.6035C36.2417 57.9333 36.1731 58.1541 35.8934 58.3722C33.9999 59.8465 32.1089 61.3243 30.2206 62.8055C29.8249 63.1196 29.466 63.0184 29.0861 62.7517C26.0192 60.5967 22.9493 58.4458 19.8763 56.2988C18.1613 55.0952 16.4463 53.8824 14.7141 52.6919C14.0571 52.255 13.5723 51.605 13.342 50.8524C11.6121 45.4213 9.87459 39.995 8.12965 34.5736C7.7629 33.4291 8.19166 32.4069 9.19561 32.0035C10.1996 31.6001 11.2246 32.0442 11.7497 33.1204C13.5087 36.718 15.2677 40.3165 17.0267 43.9159C17.2325 44.3298 17.4937 44.7148 17.747 45.1471Z" fill="white"/>
<path d="M44.3711 18.0464C43.5651 17.9833 42.8302 17.8821 42.0941 17.8769C39.4081 17.8576 36.7216 17.8576 34.0347 17.8769C33.3751 17.8769 32.726 17.9912 31.9978 18.0608C31.5743 16.8559 31.0901 15.5498 30.6627 14.2253C30.4688 13.6236 30.9331 13.0546 31.5704 13.0047C31.7023 12.9942 31.8342 13.0047 31.9661 13.0047C36.1209 13.0047 40.2757 13.0047 44.4305 13.0047C45.5466 13.0047 45.9542 13.567 45.5888 14.6038C45.1759 15.7877 44.7524 16.9742 44.3711 18.0464Z" fill="white"/>
<path d="M38.1613 22.8922C36.6441 22.8922 35.127 22.8922 33.6098 22.8922C32.5544 22.8922 32.0267 22.3587 32.0267 21.2917C32.0267 21.0933 32.0267 20.8976 32.0267 20.6939C32.0584 19.9055 32.6046 19.3195 33.3843 19.3155C36.5848 19.2998 39.7857 19.2998 42.9871 19.3155C43.7536 19.3155 44.2932 19.8832 44.3446 20.6413C44.3446 20.6742 44.3446 20.707 44.3446 20.7399C44.4541 22.3074 43.9898 22.9815 42.2602 22.9053C40.8935 22.8435 39.528 22.8922 38.1613 22.8922Z" fill="white"/>
</svg>
